<svg width="400" height="400" viewBox="0 0 400 400" fill="none" xmlns="http://www.w3.org/2000/svg">
  <g opacity="0.2">
    <circle cx="50" cy="50" r="4" fill="#FF0000"/>
    <circle cx="100" cy="50" r="4" fill="#FF0000"/>
    <circle cx="150" cy="50" r="4" fill="#FF0000"/>
    <circle cx="200" cy="50" r="4" fill="#FF0000"/>
    <circle cx="250" cy="50" r="4" fill="#FF0000"/>
    <circle cx="300" cy="50" r="4" fill="#FF0000"/>
    <circle cx="350" cy="50" r="4" fill="#FF0000"/>
    
    <circle cx="50" cy="100" r="4" fill="#FF0000"/>
    <circle cx="100" cy="100" r="4" fill="#FF0000"/>
    <circle cx="150" cy="100" r="4" fill="#FF0000"/>
    <circle cx="200" cy="100" r="4" fill="#FF0000"/>
    <circle cx="250" cy="100" r="4" fill="#FF0000"/>
    <circle cx="300" cy="100" r="4" fill="#FF0000"/>
    <circle cx="350" cy="100" r="4" fill="#FF0000"/>
    
    <circle cx="50" cy="150" r="4" fill="#FF0000"/>
    <circle cx="100" cy="150" r="4" fill="#FF0000"/>
    <circle cx="150" cy="150" r="4" fill="#FF0000"/>
    <circle cx="200" cy="150" r="4" fill="#FF0000"/>
    <circle cx="250" cy="150" r="4" fill="#FF0000"/>
    <circle cx="300" cy="150" r="4" fill="#FF0000"/>
    <circle cx="350" cy="150" r="4" fill="#FF0000"/>
    
    <circle cx="50" cy="200" r="4" fill="#FF0000"/>
    <circle cx="100" cy="200" r="4" fill="#FF0000"/>
    <circle cx="150" cy="200" r="4" fill="#FF0000"/>
    <circle cx="200" cy="200" r="4" fill="#FF0000"/>
    <circle cx="250" cy="200" r="4" fill="#FF0000"/>
    <circle cx="300" cy="200" r="4" fill="#FF0000"/>
    <circle cx="350" cy="200" r="4" fill="#FF0000"/>
    
    <circle cx="50" cy="250" r="4" fill="#FF0000"/>
    <circle cx="100" cy="250" r="4" fill="#FF0000"/>
    <circle cx="150" cy="250" r="4" fill="#FF0000"/>
    <circle cx="200" cy="250" r="4" fill="#FF0000"/>
    <circle cx="250" cy="250" r="4" fill="#FF0000"/>
    <circle cx="300" cy="250" r="4" fill="#FF0000"/>
    <circle cx="350" cy="250" r="4" fill="#FF0000"/>
    
    <circle cx="50" cy="300" r="4" fill="#FF0000"/>
    <circle cx="100" cy="300" r="4" fill="#FF0000"/>
    <circle cx="150" cy="300" r="4" fill="#FF0000"/>
    <circle cx="200" cy="300" r="4" fill="#FF0000"/>
    <circle cx="250" cy="300" r="4" fill="#FF0000"/>
    <circle cx="300" cy="300" r="4" fill="#FF0000"/>
    <circle cx="350" cy="300" r="4" fill="#FF0000"/>
    
    <circle cx="50" cy="350" r="4" fill="#FF0000"/>
    <circle cx="100" cy="350" r="4" fill="#FF0000"/>
    <circle cx="150" cy="350" r="4" fill="#FF0000"/>
    <circle cx="200" cy="350" r="4" fill="#FF0000"/>
    <circle cx="250" cy="350" r="4" fill="#FF0000"/>
    <circle cx="300" cy="350" r="4" fill="#FF0000"/>
    <circle cx="350" cy="350" r="4" fill="#FF0000"/>
  </g>
</svg>