<?xml version="1.0" encoding="UTF-8"?>
<!DOCTYPE svg PUBLIC "-//W3C//DTD SVG 1.1//EN" "http://www.w3.org/Graphics/SVG/1.1/DTD/svg11.dtd">
<!-- Creator: CorelDRAW -->
<svg xmlns="http://www.w3.org/2000/svg" xml:space="preserve" width="3.19384in" height="0.817232in" version="1.1" style="shape-rendering:geometricPrecision; text-rendering:geometricPrecision; image-rendering:optimizeQuality; fill-rule:evenodd; clip-rule:evenodd"
viewBox="0 0 552.84 141.46"
 xmlns:xlink="http://www.w3.org/1999/xlink"
 xmlns:xodm="http://www.corel.com/coreldraw/odm/2003">
 <defs>
  <style type="text/css">
   <![CDATA[
    .fil1 {fill:#3C2D1A}
    .fil0 {fill:#D4AF37}
    .fil2 {fill:#3C2D1A;fill-rule:nonzero}
   ]]>
  </style>
 </defs>
 <g id="Layer_x0020_1">
  <metadata id="CorelCorpID_0Corel-Layer"/>
  <g id="_105553249801152">
   <g>
    <polygon class="fil0" points="42.94,0 42.94,94.96 25.98,94.96 25.98,16.96 "/>
    <polygon class="fil0" points="51.96,0 51.96,94.96 68.92,94.96 68.92,16.96 "/>
    <polygon class="fil0" points="16.96,26.05 16.96,94.96 0,94.96 0,43.01 "/>
    <polygon class="fil0" points="77.94,26.05 77.94,94.96 94.9,94.96 94.9,43.01 "/>
   </g>
   <g>
    <path class="fil1" d="M-0 107.48l31.33 0c8.87,0 16.12,7.26 16.12,16.12 0,-8.87 7.26,-16.12 16.12,-16.12l31.33 0 0 -6.83 -31.33 0c-8.87,0 -16.12,7.26 -16.12,16.12 0,-8.87 -7.26,-16.12 -16.12,-16.12l-31.33 0 0 6.83z"/>
    <path class="fil1" d="M47.45 128.64c0,-8.87 -7.26,-16.12 -16.12,-16.12l-31.33 0 0 12.33 31.33 0c5.33,0 10.07,2.62 13.01,6.63l6.23 0c2.94,-4.01 7.68,-6.63 13.01,-6.63l31.33 0 0 -12.33 -31.33 0c-8.87,0 -16.12,7.26 -16.12,16.12z"/>
   </g>
  </g>
  <rect class="fil1" x="114.79" y="6.64" width="1.87" height="134.82"/>
  <g id="_105553249806432">
   <path class="fil2" d="M150.22 35.7l0 32.08 -6.9 0 0 -32.08 6.9 0zm11.27 -0.18l0 1.93 -29.45 0 0 -1.93 29.45 0zm0 1.79l0 5.43 -0.46 -0.05 0 -0.51c0,-1.44 -0.42,-2.58 -1.27,-3.43 -0.84,-0.84 -1.99,-1.28 -3.43,-1.31l0 -0.14 5.15 0zm0 -2.62l0 1.34 -5.61 -0.51c0.67,0 1.39,-0.05 2.14,-0.14 0.75,-0.09 1.45,-0.2 2.09,-0.32 0.64,-0.12 1.1,-0.25 1.38,-0.37zm-18.04 29.73l0 3.36 -3.68 0 0 -0.46c0,0 0.1,0 0.3,0 0.2,0 0.3,0 0.3,0 0.8,0 1.48,-0.28 2.05,-0.85 0.57,-0.57 0.87,-1.25 0.9,-2.05l0.14 0zm6.63 0l0.14 0c0.03,0.8 0.33,1.48 0.9,2.05 0.57,0.57 1.25,0.85 2.05,0.85 0,0 0.1,0 0.3,0 0.2,0 0.3,0 0.3,0l0 0.46 -3.68 0 0 -3.36zm-12.93 -27.11l0 0.14c-1.41,0.03 -2.54,0.47 -3.38,1.31 -0.84,0.84 -1.27,1.99 -1.27,3.43l0 0.51 -0.46 0.05 0 -5.43 5.11 0zm-5.11 -2.62c0.31,0.12 0.77,0.25 1.4,0.37 0.63,0.12 1.33,0.23 2.09,0.32 0.77,0.09 1.47,0.14 2.12,0.14l-5.61 0.51 0 -1.34zm64.24 0.87l0 32.21 -6.9 0 0 -32.21 6.9 0zm-21.81 0l0 32.21 -6.9 0 0 -32.21 6.9 0zm15.32 15.23l0 1.93 -15.78 0 0 -1.93 15.78 0zm-22.09 13.62l0 3.36 -3.68 0 0 -0.46c0,0 0.1,0 0.3,0 0.2,0 0.3,0 0.3,0 0.8,0 1.48,-0.28 2.05,-0.85 0.57,-0.57 0.87,-1.25 0.9,-2.05l0.14 0zm0 -25.49l-0.14 0c-0.03,-0.8 -0.33,-1.48 -0.9,-2.05 -0.57,-0.57 -1.25,-0.85 -2.05,-0.85 0,0 -0.1,0 -0.3,0 -0.2,0 -0.3,0 -0.3,0l0 -0.46 3.68 0 0 3.36zm6.63 25.49l0.14 0c0.03,0.8 0.33,1.48 0.9,2.05 0.57,0.57 1.25,0.85 2.05,0.85 0,0 0.09,0 0.28,0 0.18,0 0.29,0 0.32,0l0 0.46 -3.68 0 0 -3.36zm0 -25.49l0 -3.36 3.68 0 0 0.46c-0.03,0 -0.14,0 -0.32,0 -0.18,0 -0.28,0 -0.28,0 -0.8,0 -1.48,0.28 -2.05,0.85 -0.57,0.57 -0.87,1.25 -0.9,2.05l-0.14 0zm15.19 25.49l0 3.36 -3.68 0 0 -0.46c0.03,0 0.14,0 0.32,0 0.18,0 0.28,0 0.28,0 0.8,0 1.49,-0.28 2.07,-0.85 0.58,-0.57 0.87,-1.25 0.87,-2.05l0.14 0zm0 -25.49l-0.14 0c0,-0.8 -0.29,-1.48 -0.87,-2.05 -0.58,-0.57 -1.27,-0.85 -2.07,-0.85 0,0 -0.09,0 -0.28,0 -0.18,0 -0.29,0 -0.32,0l0 -0.46 3.68 0 0 3.36zm6.63 25.49l0.14 0c0.03,0.8 0.33,1.48 0.9,2.05 0.57,0.57 1.25,0.85 2.05,0.85 0,0 0.1,0 0.3,0 0.2,0 0.3,0 0.3,0l0 0.46 -3.68 0 0 -3.36zm0 -25.49l0 -3.36 3.68 0 0 0.46c0,0 -0.1,0 -0.3,0 -0.2,0 -0.3,0 -0.3,0 -0.8,0 -1.48,0.28 -2.05,0.85 -0.57,0.57 -0.87,1.25 -0.9,2.05l-0.14 0zm17.99 -3.36l0 32.21 -6.9 0 0 -32.21 6.9 0zm12.15 30.23l1.1 1.98 -13.39 0 0 -1.98 12.29 0zm-1.7 -14.86l0 1.93 -10.58 0 0 -1.93 10.58 0zm2.26 -15.37l0 1.98 -12.84 0 0 -1.98 12.84 0zm2.81 22.83l-2.12 9.39 -9.02 0 1.66 -1.98c1.53,0 2.88,-0.3 4.05,-0.9 1.17,-0.6 2.16,-1.46 2.99,-2.58 0.83,-1.12 1.49,-2.43 1.98,-3.93l0.46 0zm-5.06 -5.61l0 4.42 -0.46 0 0 -0.41c0,-1.1 -0.37,-2.02 -1.1,-2.76 -0.74,-0.74 -1.67,-1.12 -2.81,-1.15l0 -0.09 4.37 0zm0 -6.17l0 4.42 -4.37 0 0 -0.09c1.13,-0.03 2.07,-0.42 2.81,-1.17 0.74,-0.75 1.1,-1.68 1.1,-2.78l0 -0.37 0.46 0zm2.26 -9.2l0 5.38 -0.46 0 0 -0.55c0,-1.41 -0.42,-2.55 -1.27,-3.41 -0.84,-0.86 -1.99,-1.3 -3.43,-1.33l0 -0.09 5.15 0zm0 -2.67l0 1.33 -5.61 -0.51c0.68,0 1.39,-0.05 2.14,-0.14 0.75,-0.09 1.45,-0.2 2.09,-0.32 0.64,-0.12 1.1,-0.25 1.38,-0.37zm-19.47 29.68l0 3.36 -3.68 0 0 -0.46c0,0 0.1,0 0.3,0 0.2,0 0.3,0 0.3,0 0.8,0 1.48,-0.28 2.05,-0.85 0.57,-0.57 0.87,-1.25 0.9,-2.05l0.14 0zm0 -25.49l-0.14 0c-0.03,-0.8 -0.33,-1.48 -0.9,-2.05 -0.57,-0.57 -1.25,-0.85 -2.05,-0.85 0,0 -0.1,0 -0.3,0 -0.2,0 -0.3,0 -0.3,0l0 -0.46 3.68 0 0 3.36zm47.72 -4c0.61,0 1.37,0.03 2.28,0.09 0.91,0.06 1.84,0.15 2.81,0.25 0.97,0.11 1.81,0.22 2.53,0.32 0.72,0.11 1.22,0.22 1.5,0.35l-0.55 6.21 -0.46 0c0,-1.6 -0.59,-2.88 -1.77,-3.84 -1.18,-0.97 -2.75,-1.45 -4.72,-1.45 -1.78,0 -3.21,0.43 -4.3,1.29 -1.09,0.86 -1.66,1.9 -1.73,3.13 -0.03,0.92 0.26,1.72 0.87,2.39 0.61,0.68 1.4,1.3 2.35,1.89l8.79 5.71c1.41,0.8 2.48,1.84 3.2,3.13 0.72,1.29 1.04,2.79 0.94,4.51 -0.15,3.01 -1.3,5.35 -3.45,7.02 -2.15,1.67 -5.06,2.51 -8.74,2.51 -1.35,0 -2.66,-0.11 -3.93,-0.34 -1.27,-0.23 -2.4,-0.55 -3.38,-0.97 -0.98,-0.41 -1.76,-0.91 -2.35,-1.5 -0.25,-0.67 -0.35,-1.49 -0.32,-2.44 0.03,-0.95 0.18,-1.92 0.44,-2.9 0.26,-0.98 0.59,-1.8 0.99,-2.44l0.41 0c-0.12,1.56 0.16,3.01 0.85,4.35 0.69,1.34 1.7,2.39 3.04,3.18 1.33,0.78 2.92,1.16 4.76,1.13 2.02,-0.03 3.59,-0.54 4.69,-1.54 1.1,-1 1.66,-2.2 1.66,-3.61 0,-0.95 -0.28,-1.81 -0.85,-2.58 -0.57,-0.77 -1.5,-1.5 -2.78,-2.21l-8.05 -5.34c-1.63,-0.92 -2.81,-2.1 -3.54,-3.54 -0.74,-1.44 -1.01,-3.01 -0.83,-4.69 0.12,-1.6 0.58,-3 1.38,-4.21 0.8,-1.21 1.89,-2.16 3.29,-2.83 1.4,-0.68 3.06,-1.01 4.99,-1.01zm9.16 0.46l-0.09 0.97 -5.43 0 0 -0.97 5.52 0zm37.92 18.96l0.41 7.92c-0.67,1.13 -1.58,2.16 -2.72,3.08 -1.14,0.92 -2.55,1.66 -4.23,2.23 -1.69,0.57 -3.68,0.85 -5.98,0.85 -3.74,-0.03 -7.02,-0.71 -9.83,-2.05 -2.81,-1.33 -4.98,-3.24 -6.51,-5.73 -1.53,-2.48 -2.3,-5.49 -2.3,-9.02 0,-3.44 0.75,-6.4 2.26,-8.9 1.5,-2.5 3.66,-4.43 6.47,-5.78 2.81,-1.35 6.16,-2.02 10.06,-2.02 2.45,0 4.66,0.25 6.6,0.74 1.95,0.49 3.57,1.09 4.86,1.8l0.09 7.87 -0.41 0c-0.83,-3.04 -2.18,-5.21 -4.05,-6.51 -1.87,-1.3 -4.06,-1.96 -6.58,-1.96 -2.45,0 -4.56,0.6 -6.3,1.8 -1.75,1.2 -3.1,2.88 -4.05,5.06 -0.95,2.18 -1.43,4.79 -1.43,7.82 0,3.04 0.45,5.66 1.36,7.87 0.91,2.21 2.19,3.93 3.87,5.15 1.67,1.23 3.64,1.87 5.91,1.93 2.36,0 4.36,-0.38 5.98,-1.15 1.63,-0.77 2.94,-2.04 3.93,-3.82 1,-1.78 1.74,-4.17 2.23,-7.18l0.37 0zm36.72 -18.78l0 32.21 -6.9 0 0 -32.21 6.9 0zm-21.81 0l0 32.21 -6.9 0 0 -32.21 6.9 0zm15.32 15.23l0 1.93 -15.78 0 0 -1.93 15.78 0zm-22.09 13.62l0 3.36 -3.68 0 0 -0.46c0,0 0.1,0 0.3,0 0.2,0 0.3,0 0.3,0 0.8,0 1.48,-0.28 2.05,-0.85 0.57,-0.57 0.87,-1.25 0.9,-2.05l0.14 0zm0 -25.49l-0.14 0c-0.03,-0.8 -0.33,-1.48 -0.9,-2.05 -0.57,-0.57 -1.25,-0.85 -2.05,-0.85 0,0 -0.1,0 -0.3,0 -0.2,0 -0.3,0 -0.3,0l0 -0.46 3.68 0 0 3.36zm6.63 25.49l0.14 0c0.03,0.8 0.33,1.48 0.9,2.05 0.57,0.57 1.25,0.85 2.05,0.85 0,0 0.09,0 0.28,0 0.18,0 0.29,0 0.32,0l0 0.46 -3.68 0 0 -3.36zm0 -25.49l0 -3.36 3.68 0 0 0.46c-0.03,0 -0.14,0 -0.32,0 -0.18,0 -0.28,0 -0.28,0 -0.8,0 -1.48,0.28 -2.05,0.85 -0.57,0.57 -0.87,1.25 -0.9,2.05l-0.14 0zm15.19 25.49l0 3.36 -3.68 0 0 -0.46c0.03,0 0.14,0 0.32,0 0.18,0 0.28,0 0.28,0 0.8,0 1.49,-0.28 2.07,-0.85 0.58,-0.57 0.87,-1.25 0.87,-2.05l0.14 0zm0 -25.49l-0.14 0c0,-0.8 -0.29,-1.48 -0.87,-2.05 -0.58,-0.57 -1.27,-0.85 -2.07,-0.85 0,0 -0.09,0 -0.28,0 -0.18,0 -0.29,0 -0.32,0l0 -0.46 3.68 0 0 3.36zm6.63 25.49l0.14 0c0.03,0.8 0.33,1.48 0.9,2.05 0.57,0.57 1.25,0.85 2.05,0.85 0,0 0.1,0 0.3,0 0.2,0 0.3,0 0.3,0l0 0.46 -3.68 0 0 -3.36zm0 -25.49l0 -3.36 3.68 0 0 0.46c0,0 -0.1,0 -0.3,0 -0.2,0 -0.3,0 -0.3,0 -0.8,0 -1.48,0.28 -2.05,0.85 -0.57,0.57 -0.87,1.25 -0.9,2.05l-0.14 0zm25.03 -4c3.68,0 6.88,0.68 9.6,2.05 2.72,1.37 4.82,3.29 6.3,5.78 1.49,2.48 2.23,5.46 2.23,8.93 0,3.44 -0.74,6.4 -2.23,8.9 -1.49,2.5 -3.59,4.43 -6.3,5.8 -2.72,1.37 -5.91,2.05 -9.6,2.05 -3.68,0 -6.88,-0.68 -9.59,-2.05 -2.72,-1.37 -4.81,-3.29 -6.28,-5.77 -1.47,-2.49 -2.21,-5.46 -2.21,-8.93 0,-3.44 0.74,-6.4 2.21,-8.9 1.47,-2.5 3.57,-4.43 6.28,-5.8 2.72,-1.37 5.91,-2.05 9.59,-2.05zm0 31.57c2.18,0 4.06,-0.61 5.64,-1.82 1.58,-1.21 2.79,-2.92 3.64,-5.13 0.84,-2.21 1.27,-4.83 1.27,-7.87 0,-3.04 -0.42,-5.66 -1.27,-7.87 -0.84,-2.21 -2.06,-3.92 -3.64,-5.13 -1.58,-1.21 -3.46,-1.82 -5.64,-1.82 -2.15,0 -4.01,0.61 -5.59,1.82 -1.58,1.21 -2.8,2.92 -3.66,5.13 -0.86,2.21 -1.29,4.83 -1.29,7.87 0,3.04 0.43,5.66 1.29,7.87 0.86,2.21 2.08,3.92 3.66,5.13 1.58,1.21 3.44,1.82 5.59,1.82zm40.96 -31.57c3.68,0 6.88,0.68 9.6,2.05 2.72,1.37 4.82,3.29 6.3,5.78 1.49,2.48 2.23,5.46 2.23,8.93 0,3.44 -0.74,6.4 -2.23,8.9 -1.49,2.5 -3.59,4.43 -6.3,5.8 -2.72,1.37 -5.91,2.05 -9.6,2.05 -3.68,0 -6.88,-0.68 -9.59,-2.05 -2.72,-1.37 -4.81,-3.29 -6.28,-5.77 -1.47,-2.49 -2.21,-5.46 -2.21,-8.93 0,-3.44 0.74,-6.4 2.21,-8.9 1.47,-2.5 3.57,-4.43 6.28,-5.8 2.72,-1.37 5.91,-2.05 9.59,-2.05zm0 31.57c2.18,0 4.06,-0.61 5.64,-1.82 1.58,-1.21 2.79,-2.92 3.64,-5.13 0.84,-2.21 1.27,-4.83 1.27,-7.87 0,-3.04 -0.42,-5.66 -1.27,-7.87 -0.84,-2.21 -2.06,-3.92 -3.64,-5.13 -1.58,-1.21 -3.46,-1.82 -5.64,-1.82 -2.15,0 -4.01,0.61 -5.59,1.82 -1.58,1.21 -2.8,2.92 -3.66,5.13 -0.86,2.21 -1.29,4.83 -1.29,7.87 0,3.04 0.43,5.66 1.29,7.87 0.86,2.21 2.08,3.92 3.66,5.13 1.58,1.21 3.44,1.82 5.59,1.82zm31.57 -30.93l0 32.21 -6.9 0 0 -32.21 6.9 0zm12.15 30.23l1.1 1.98 -13.39 0 0 -1.98 12.29 0zm3.36 -7.41l-2.12 9.39 -9.02 0 1.66 -1.98c1.53,0 2.88,-0.3 4.05,-0.9 1.17,-0.6 2.16,-1.46 2.99,-2.58 0.83,-1.12 1.49,-2.43 1.98,-3.93l0.46 0zm-22.27 6.03l0 3.36 -3.68 0 0 -0.46c0,0 0.1,0 0.3,0 0.2,0 0.3,0 0.3,0 0.8,0 1.48,-0.28 2.05,-0.85 0.57,-0.57 0.87,-1.25 0.9,-2.05l0.14 0zm0 -25.49l-0.14 0c-0.03,-0.8 -0.33,-1.48 -0.9,-2.05 -0.57,-0.57 -1.25,-0.85 -2.05,-0.85 0,0 -0.1,0 -0.3,0 -0.2,0 -0.3,0 -0.3,0l0 -0.46 3.68 0 0 3.36zm6.63 0l0 -3.36 3.68 0 0 0.46c-0.03,0 -0.14,0 -0.32,0 -0.18,0 -0.28,0 -0.28,0 -0.8,0 -1.48,0.28 -2.05,0.85 -0.57,0.57 -0.87,1.25 -0.9,2.05l-0.14 0zm-292.41 44.93l0 32.21 -6.9 0 0 -32.21 6.9 0zm10.45 15.37l0 1.93 -10.58 0 0 -1.93 10.58 0zm2.26 -15.37l0 1.98 -12.84 0 0 -1.98 12.84 0zm-2.26 17.21l0 4.42 -0.46 0 0 -0.41c0,-1.1 -0.37,-2.02 -1.1,-2.76 -0.74,-0.74 -1.67,-1.12 -2.81,-1.15l0 -0.09 4.37 0zm0 -6.17l0 4.42 -4.37 0 0 -0.09c1.13,-0.03 2.07,-0.42 2.81,-1.17 0.74,-0.75 1.1,-1.68 1.1,-2.78l0 -0.37 0.46 0zm2.26 -9.2l0 5.11 -0.46 0 0 -0.46c0,-1.38 -0.41,-2.48 -1.22,-3.29 -0.81,-0.81 -1.91,-1.22 -3.29,-1.22l0 -0.14 4.97 0zm0 -2.67l0 1.33 -5.61 -0.51c0.68,0 1.39,-0.05 2.14,-0.14 0.75,-0.09 1.45,-0.2 2.09,-0.32 0.64,-0.12 1.1,-0.25 1.38,-0.37zm-19.47 29.68l0 3.36 -3.68 0 0 -0.46c0,0 0.1,0 0.3,0 0.2,0 0.3,0 0.3,0 0.8,0 1.48,-0.28 2.05,-0.85 0.57,-0.57 0.87,-1.25 0.9,-2.05l0.14 0zm0 -25.49l-0.14 0c-0.03,-0.8 -0.33,-1.48 -0.9,-2.05 -0.57,-0.57 -1.25,-0.85 -2.05,-0.85 0,0 -0.1,0 -0.3,0 -0.2,0 -0.3,0 -0.3,0l0 -0.46 3.68 0 0 3.36zm6.63 25.49l0.14 0c0.03,0.8 0.33,1.48 0.9,2.05 0.57,0.57 1.25,0.85 2.05,0.85 0,0 0.09,0 0.28,0 0.18,0 0.29,0 0.32,0l0 0.46 -3.68 0 0 -3.36zm35.16 -29.5c3.68,0 6.88,0.68 9.6,2.05 2.72,1.37 4.82,3.29 6.3,5.78 1.49,2.48 2.23,5.46 2.23,8.93 0,3.44 -0.74,6.4 -2.23,8.9 -1.49,2.5 -3.59,4.43 -6.3,5.8 -2.72,1.37 -5.91,2.05 -9.6,2.05 -3.68,0 -6.88,-0.68 -9.59,-2.05 -2.72,-1.37 -4.81,-3.29 -6.28,-5.77 -1.47,-2.49 -2.21,-5.46 -2.21,-8.93 0,-3.44 0.74,-6.4 2.21,-8.9 1.47,-2.5 3.57,-4.43 6.28,-5.8 2.72,-1.37 5.91,-2.05 9.59,-2.05zm0 31.57c2.18,0 4.06,-0.61 5.64,-1.82 1.58,-1.21 2.79,-2.92 3.64,-5.13 0.84,-2.21 1.27,-4.83 1.27,-7.87 0,-3.04 -0.42,-5.66 -1.27,-7.87 -0.84,-2.21 -2.06,-3.92 -3.64,-5.13 -1.58,-1.21 -3.46,-1.82 -5.64,-1.82 -2.15,0 -4.01,0.61 -5.59,1.82 -1.58,1.21 -2.8,2.92 -3.66,5.13 -0.86,2.21 -1.29,4.83 -1.29,7.87 0,3.04 0.43,5.66 1.29,7.87 0.86,2.21 2.08,3.92 3.66,5.13 1.58,1.21 3.44,1.82 5.59,1.82zm31.11 -30.93l5.94 0c1.38,0 2.73,0.15 4.05,0.46 1.32,0.31 2.49,0.8 3.52,1.47 1.03,0.67 1.85,1.56 2.46,2.67 0.61,1.1 0.92,2.47 0.92,4.1 0,1.29 -0.27,2.57 -0.81,3.84 -0.54,1.27 -1.36,2.36 -2.46,3.27 -1.1,0.91 -2.53,1.45 -4.28,1.63 0.98,0.31 1.88,0.86 2.69,1.66 0.81,0.8 1.48,1.59 2,2.39 0.03,0.06 0.21,0.34 0.53,0.83 0.32,0.49 0.72,1.1 1.2,1.82 0.48,0.72 0.97,1.45 1.5,2.19 0.52,0.74 1,1.38 1.43,1.93 0.68,0.83 1.29,1.5 1.84,2 0.55,0.51 1.14,0.87 1.75,1.1 0.61,0.23 1.32,0.36 2.12,0.39l0 0.46 -4.51 0c-1.66,0 -3.16,-0.15 -4.51,-0.46 -1.35,-0.31 -2.55,-0.81 -3.59,-1.5 -1.04,-0.69 -1.95,-1.63 -2.72,-2.83 -0.25,-0.37 -0.51,-0.84 -0.81,-1.4 -0.29,-0.57 -0.59,-1.17 -0.9,-1.82 -0.31,-0.64 -0.61,-1.27 -0.9,-1.86 -0.29,-0.6 -0.54,-1.14 -0.76,-1.63 -0.21,-0.49 -0.37,-0.87 -0.46,-1.15 -0.4,-0.98 -0.87,-1.72 -1.4,-2.21 -0.54,-0.49 -1.11,-0.78 -1.73,-0.87l0 -0.46c0.09,0 0.28,0 0.55,0 0.28,0 0.57,0 0.87,0 0.83,0 1.63,-0.17 2.42,-0.51 0.78,-0.34 1.48,-0.89 2.09,-1.66 0.61,-0.77 1.04,-1.83 1.29,-3.18 0.06,-0.28 0.12,-0.6 0.16,-0.97 0.05,-0.37 0.05,-0.78 0.02,-1.24 -0.09,-2.21 -0.64,-3.83 -1.66,-4.86 -1.01,-1.03 -2.27,-1.56 -3.77,-1.59 -0.43,-0.03 -0.9,-0.04 -1.4,-0.02 -0.51,0.01 -0.97,0.02 -1.38,0.02 -0.41,0 -0.7,0 -0.85,0 0,-0.03 -0.04,-0.21 -0.12,-0.53 -0.08,-0.32 -0.15,-0.65 -0.23,-0.99 -0.08,-0.34 -0.12,-0.51 -0.12,-0.51zm0.6 0l0 32.21 -6.9 0 0 -32.21 6.9 0zm-6.77 28.85l0 3.36 -3.68 0 0 -0.46c0.03,0 0.13,0 0.3,0 0.17,0 0.27,0 0.3,0 0.8,0 1.48,-0.28 2.05,-0.85 0.57,-0.57 0.87,-1.25 0.9,-2.05l0.14 0zm0 -25.49l-0.14 0c-0.03,-0.8 -0.33,-1.48 -0.9,-2.05 -0.57,-0.57 -1.25,-0.85 -2.05,-0.85 -0.03,0 -0.13,0 -0.3,0 -0.17,0 -0.27,0 -0.3,0l0 -0.46 3.68 0 0 3.36zm6.63 25.49l0.14 0c0,0.8 0.29,1.48 0.87,2.05 0.58,0.57 1.27,0.85 2.07,0.85 0.06,0 0.17,0 0.32,0 0.15,0 0.23,0 0.23,0l0 0.46 -3.64 0 0 -3.36zm52.32 -28.72l0 32.08 -6.9 0 0 -32.08 6.9 0zm11.27 -0.18l0 1.93 -29.45 0 0 -1.93 29.45 0zm0 1.79l0 5.43 -0.46 -0.05 0 -0.51c0,-1.44 -0.42,-2.58 -1.27,-3.43 -0.84,-0.84 -1.99,-1.28 -3.43,-1.31l0 -0.14 5.15 0zm0 -2.62l0 1.34 -5.61 -0.51c0.67,0 1.39,-0.05 2.14,-0.14 0.75,-0.09 1.45,-0.2 2.09,-0.32 0.64,-0.12 1.1,-0.25 1.38,-0.37zm-18.04 29.73l0 3.36 -3.68 0 0 -0.46c0,0 0.1,0 0.3,0 0.2,0 0.3,0 0.3,0 0.8,0 1.48,-0.28 2.05,-0.85 0.57,-0.57 0.87,-1.25 0.9,-2.05l0.14 0zm6.63 0l0.14 0c0.03,0.8 0.33,1.48 0.9,2.05 0.57,0.57 1.25,0.85 2.05,0.85 0,0 0.1,0 0.3,0 0.2,0 0.3,0 0.3,0l0 0.46 -3.68 0 0 -3.36zm-12.93 -27.11l0 0.14c-1.41,0.03 -2.54,0.47 -3.38,1.31 -0.84,0.84 -1.27,1.99 -1.27,3.43l0 0.51 -0.46 0.05 0 -5.43 5.11 0zm-5.11 -2.62c0.31,0.12 0.77,0.25 1.4,0.37 0.63,0.12 1.33,0.23 2.09,0.32 0.77,0.09 1.47,0.14 2.12,0.14l-5.61 0.51 0 -1.34zm64.24 0.87l0 32.21 -6.9 0 0 -32.21 6.9 0zm-21.81 0l0 32.21 -6.9 0 0 -32.21 6.9 0zm15.32 15.23l0 1.93 -15.78 0 0 -1.93 15.78 0zm-22.09 13.62l0 3.36 -3.68 0 0 -0.46c0,0 0.1,0 0.3,0 0.2,0 0.3,0 0.3,0 0.8,0 1.48,-0.28 2.05,-0.85 0.57,-0.57 0.87,-1.25 0.9,-2.05l0.14 0zm0 -25.49l-0.14 0c-0.03,-0.8 -0.33,-1.48 -0.9,-2.05 -0.57,-0.57 -1.25,-0.85 -2.05,-0.85 0,0 -0.1,0 -0.3,0 -0.2,0 -0.3,0 -0.3,0l0 -0.46 3.68 0 0 3.36zm6.63 25.49l0.14 0c0.03,0.8 0.33,1.48 0.9,2.05 0.57,0.57 1.25,0.85 2.05,0.85 0,0 0.09,0 0.28,0 0.18,0 0.29,0 0.32,0l0 0.46 -3.68 0 0 -3.36zm0 -25.49l0 -3.36 3.68 0 0 0.46c-0.03,0 -0.14,0 -0.32,0 -0.18,0 -0.28,0 -0.28,0 -0.8,0 -1.48,0.28 -2.05,0.85 -0.57,0.57 -0.87,1.25 -0.9,2.05l-0.14 0zm15.19 25.49l0 3.36 -3.68 0 0 -0.46c0.03,0 0.14,0 0.32,0 0.18,0 0.28,0 0.28,0 0.8,0 1.49,-0.28 2.07,-0.85 0.58,-0.57 0.87,-1.25 0.87,-2.05l0.14 0zm0 -25.49l-0.14 0c0,-0.8 -0.29,-1.48 -0.87,-2.05 -0.58,-0.57 -1.27,-0.85 -2.07,-0.85 0,0 -0.09,0 -0.28,0 -0.18,0 -0.29,0 -0.32,0l0 -0.46 3.68 0 0 3.36zm6.63 25.49l0.14 0c0.03,0.8 0.33,1.48 0.9,2.05 0.57,0.57 1.25,0.85 2.05,0.85 0,0 0.1,0 0.3,0 0.2,0 0.3,0 0.3,0l0 0.46 -3.68 0 0 -3.36zm0 -25.49l0 -3.36 3.68 0 0 0.46c0,0 -0.1,0 -0.3,0 -0.2,0 -0.3,0 -0.3,0 -0.8,0 -1.48,0.28 -2.05,0.85 -0.57,0.57 -0.87,1.25 -0.9,2.05l-0.14 0zm17.99 -3.36l0 32.21 -6.9 0 0 -32.21 6.9 0zm12.15 30.23l1.1 1.98 -13.39 0 0 -1.98 12.29 0zm-1.7 -14.86l0 1.93 -10.58 0 0 -1.93 10.58 0zm2.26 -15.37l0 1.98 -12.84 0 0 -1.98 12.84 0zm2.81 22.83l-2.12 9.39 -9.02 0 1.66 -1.98c1.53,0 2.88,-0.3 4.05,-0.9 1.17,-0.6 2.16,-1.46 2.99,-2.58 0.83,-1.12 1.49,-2.43 1.98,-3.93l0.46 0zm-5.06 -5.61l0 4.42 -0.46 0 0 -0.41c0,-1.1 -0.37,-2.02 -1.1,-2.76 -0.74,-0.74 -1.67,-1.12 -2.81,-1.15l0 -0.09 4.37 0zm0 -6.17l0 4.42 -4.37 0 0 -0.09c1.13,-0.03 2.07,-0.42 2.81,-1.17 0.74,-0.75 1.1,-1.68 1.1,-2.78l0 -0.37 0.46 0zm2.26 -9.2l0 5.38 -0.46 0 0 -0.55c0,-1.41 -0.42,-2.55 -1.27,-3.41 -0.84,-0.86 -1.99,-1.3 -3.43,-1.33l0 -0.09 5.15 0zm0 -2.67l0 1.33 -5.61 -0.51c0.68,0 1.39,-0.05 2.14,-0.14 0.75,-0.09 1.45,-0.2 2.09,-0.32 0.64,-0.12 1.1,-0.25 1.38,-0.37zm-19.47 29.68l0 3.36 -3.68 0 0 -0.46c0,0 0.1,0 0.3,0 0.2,0 0.3,0 0.3,0 0.8,0 1.48,-0.28 2.05,-0.85 0.57,-0.57 0.87,-1.25 0.9,-2.05l0.14 0zm0 -25.49l-0.14 0c-0.03,-0.8 -0.33,-1.48 -0.9,-2.05 -0.57,-0.57 -1.25,-0.85 -2.05,-0.85 0,0 -0.1,0 -0.3,0 -0.2,0 -0.3,0 -0.3,0l0 -0.46 3.68 0 0 3.36zm53.61 -3.36c3.62,0 6.75,0.65 9.39,1.96 2.64,1.3 4.67,3.16 6.1,5.57 1.43,2.41 2.14,5.27 2.14,8.58 0,3.31 -0.71,6.17 -2.14,8.58 -1.43,2.41 -3.46,4.26 -6.1,5.57 -2.64,1.3 -5.77,1.96 -9.39,1.96l-10.95 0 -0.05 -1.93c0.89,0 1.82,0 2.78,0 0.97,0 1.9,0 2.81,0 0.91,0 1.73,0 2.46,0 0.74,0 1.32,0 1.75,0 0.43,0 0.64,0 0.64,0 2.21,0 4.11,-0.58 5.71,-1.73 1.6,-1.15 2.82,-2.78 3.68,-4.9 0.86,-2.12 1.29,-4.63 1.29,-7.55 0,-2.91 -0.43,-5.43 -1.29,-7.55 -0.86,-2.12 -2.09,-3.75 -3.68,-4.9 -1.6,-1.15 -3.5,-1.73 -5.71,-1.73 0,0 -0.22,0 -0.67,0 -0.44,0 -1.05,0 -1.82,0 -0.77,0 -1.63,0 -2.58,0 -0.95,0 -1.93,0 -2.94,0 -1.01,0 -1.98,0 -2.9,0l0 -1.93 11.46 0zm-6.26 0l0 32.21 -6.9 0 0 -32.21 6.9 0zm-6.77 28.85l0 3.36 -3.68 0 0 -0.46c0,0 0.1,0 0.3,0 0.2,0 0.3,0 0.3,0 0.8,0 1.48,-0.28 2.05,-0.85 0.57,-0.57 0.87,-1.25 0.9,-2.05l0.14 0zm0 -25.49l-0.14 0c0,-0.8 -0.29,-1.48 -0.87,-2.05 -0.58,-0.57 -1.27,-0.85 -2.07,-0.85 0,0 -0.09,0 -0.28,0 -0.18,0 -0.28,0 -0.28,0l-0.05 -0.46 3.68 0 0 3.36zm47.31 -4.28l15 32.86 -8.24 0 -9.57 -23.98 2.81 -8.88zm-9.89 29.77c-0.25,0.61 -0.29,1.14 -0.14,1.56 0.15,0.43 0.41,0.76 0.78,0.99 0.37,0.23 0.74,0.35 1.1,0.35l0.41 0 0 0.46 -9.85 0 0 -0.46c0,0 0.07,0 0.21,0 0.14,0 0.21,0 0.21,0 0.71,0 1.43,-0.22 2.19,-0.67 0.75,-0.45 1.37,-1.19 1.86,-2.23l3.22 0zm9.89 -29.77l0.18 5.61 -11.41 27.38 -3.36 0 11.92 -26.97c0.09,-0.18 0.25,-0.53 0.48,-1.04 0.23,-0.51 0.48,-1.08 0.74,-1.73 0.26,-0.64 0.5,-1.27 0.71,-1.86 0.22,-0.6 0.32,-1.07 0.32,-1.4l0.41 0zm4.83 22.18l0 1.93 -13.53 0 0 -1.93 13.53 0zm0.69 7.59l8.05 0c0.52,1.04 1.15,1.79 1.89,2.23 0.74,0.44 1.46,0.67 2.16,0.67 0,0 0.06,0 0.18,0 0.12,0 0.18,0 0.18,0l0 0.46 -14.63 0 0 -0.46 0.41 0c0.61,0 1.15,-0.25 1.61,-0.76 0.46,-0.51 0.51,-1.22 0.14,-2.14z"/>
   <path class="fil2" d="M436.37 83.85l5.94 0c1.38,0 2.73,0.15 4.05,0.46 1.32,0.31 2.49,0.8 3.52,1.47 1.03,0.67 1.85,1.56 2.46,2.67 0.61,1.1 0.92,2.47 0.92,4.1 0,1.29 -0.27,2.57 -0.81,3.84 -0.54,1.27 -1.36,2.36 -2.46,3.27 -1.1,0.91 -2.53,1.45 -4.28,1.63 0.98,0.31 1.88,0.86 2.69,1.66 0.81,0.8 1.48,1.59 2,2.39 0.03,0.06 0.21,0.34 0.53,0.83 0.32,0.49 0.72,1.1 1.2,1.82 0.48,0.72 0.97,1.45 1.5,2.19 0.52,0.74 1,1.38 1.43,1.93 0.68,0.83 1.29,1.5 1.84,2 0.55,0.51 1.14,0.87 1.75,1.1 0.61,0.23 1.32,0.36 2.12,0.39l0 0.46 -4.51 0c-1.66,0 -3.16,-0.15 -4.51,-0.46 -1.35,-0.31 -2.55,-0.81 -3.59,-1.5 -1.04,-0.69 -1.95,-1.63 -2.72,-2.83 -0.25,-0.37 -0.51,-0.84 -0.81,-1.4 -0.29,-0.57 -0.59,-1.17 -0.9,-1.82 -0.31,-0.64 -0.61,-1.27 -0.9,-1.86 -0.29,-0.6 -0.54,-1.14 -0.76,-1.63 -0.21,-0.49 -0.37,-0.87 -0.46,-1.15 -0.4,-0.98 -0.87,-1.72 -1.4,-2.21 -0.54,-0.49 -1.11,-0.78 -1.73,-0.87l0 -0.46c0.09,0 0.28,0 0.55,0 0.28,0 0.57,0 0.87,0 0.83,0 1.63,-0.17 2.42,-0.51 0.78,-0.34 1.48,-0.89 2.09,-1.66 0.61,-0.77 1.04,-1.83 1.29,-3.18 0.06,-0.28 0.12,-0.6 0.16,-0.97 0.05,-0.37 0.05,-0.78 0.02,-1.24 -0.09,-2.21 -0.64,-3.83 -1.66,-4.86 -1.01,-1.03 -2.27,-1.56 -3.77,-1.59 -0.43,-0.03 -0.9,-0.04 -1.4,-0.02 -0.51,0.01 -0.97,0.02 -1.38,0.02 -0.41,0 -0.7,0 -0.85,0 0,-0.03 -0.04,-0.21 -0.12,-0.53 -0.08,-0.32 -0.15,-0.65 -0.23,-0.99 -0.08,-0.34 -0.12,-0.51 -0.12,-0.51zm0.6 0l0 32.21 -6.9 0 0 -32.21 6.9 0zm-6.77 28.85l0 3.36 -3.68 0 0 -0.46c0.03,0 0.13,0 0.3,0 0.17,0 0.27,0 0.3,0 0.8,0 1.48,-0.28 2.05,-0.85 0.57,-0.57 0.87,-1.25 0.9,-2.05l0.14 0zm0 -25.49l-0.14 0c-0.03,-0.8 -0.33,-1.48 -0.9,-2.05 -0.57,-0.57 -1.25,-0.85 -2.05,-0.85 -0.03,0 -0.13,0 -0.3,0 -0.17,0 -0.27,0 -0.3,0l0 -0.46 3.68 0 0 3.36zm6.63 25.49l0.14 0c0,0.8 0.29,1.48 0.87,2.05 0.58,0.57 1.27,0.85 2.07,0.85 0.06,0 0.17,0 0.32,0 0.15,0 0.23,0 0.23,0l0 0.46 -3.64 0 0 -3.36zm33.82 -28.85l0 32.21 -6.9 0 0 -32.21 6.9 0zm-6.77 28.85l0 3.36 -3.68 0 0 -0.46c0,0 0.1,0 0.3,0 0.2,0 0.3,0 0.3,0 0.8,0 1.48,-0.28 2.05,-0.85 0.57,-0.57 0.87,-1.25 0.9,-2.05l0.14 0zm0 -25.49l-0.14 0c-0.03,-0.8 -0.33,-1.48 -0.9,-2.05 -0.57,-0.57 -1.25,-0.85 -2.05,-0.85 0,0 -0.1,0 -0.3,0 -0.2,0 -0.3,0 -0.3,0l0 -0.46 3.68 0 0 3.36zm6.63 25.49l0.14 0c0.03,0.8 0.33,1.48 0.9,2.05 0.57,0.57 1.25,0.85 2.05,0.85 0,0 0.09,0 0.28,0 0.18,0 0.29,0 0.32,0l0 0.46 -3.68 0 0 -3.36zm0 -25.49l0 -3.36 3.68 0 0 0.46c-0.03,0 -0.14,0 -0.32,0 -0.18,0 -0.28,0 -0.28,0 -0.8,0 -1.48,0.28 -2.05,0.85 -0.57,0.57 -0.87,1.25 -0.9,2.05l-0.14 0zm10.54 -4.05l29.36 27.98 0.55 5.57 -29.36 -27.93 -0.55 -5.61zm0.23 29.64l0 3.27 -3.82 0 0 -0.46c0,0 0.14,0 0.41,0 0.28,0 0.43,0 0.46,0 0.77,0 1.43,-0.28 1.98,-0.83 0.55,-0.55 0.83,-1.21 0.83,-1.98l0.14 0zm6.44 0c0,0.77 0.28,1.43 0.83,1.98 0.55,0.55 1.21,0.83 1.98,0.83 0.03,0 0.18,0 0.46,0 0.28,0 0.41,0 0.41,0l0 0.46 -3.82 0 0 -3.27 0.14 0zm-6.67 -29.64l6.63 7.04 0.05 25.86 -6.58 0 0 -27.15c0,-1.72 -0.09,-3.11 -0.28,-4.16 -0.18,-1.06 -0.28,-1.59 -0.28,-1.59l0.46 0zm29.77 0.69l0 26.97c0,1.13 0.05,2.15 0.14,3.06 0.09,0.91 0.18,1.6 0.28,2.09 0.09,0.49 0.14,0.74 0.14,0.74l-0.41 0 -6.67 -7.45 0 -25.4 6.53 0zm3.68 0l0 0.46c0,0 -0.14,0 -0.41,0 -0.28,0 -0.41,0 -0.41,0 -0.77,0 -1.43,0.27 -1.98,0.8 -0.55,0.54 -0.84,1.2 -0.87,2l-0.14 0 0 -3.27 3.82 0zm-13.94 0l3.82 0 0 3.27 -0.09 0c-0.03,-0.8 -0.31,-1.47 -0.85,-2 -0.54,-0.54 -1.2,-0.8 -2,-0.8 0,0 -0.14,0 -0.41,0 -0.28,0 -0.43,0 -0.46,0l0 -0.46zm49.29 19.33l0 7.59c-0.74,0.92 -1.83,1.84 -3.29,2.76 -1.46,0.92 -3.21,1.68 -5.25,2.28 -2.04,0.6 -4.29,0.9 -6.74,0.9 -3.5,0 -6.55,-0.68 -9.16,-2.05 -2.61,-1.37 -4.63,-3.31 -6.07,-5.82 -1.44,-2.52 -2.16,-5.49 -2.16,-8.93 0,-3.44 0.71,-6.4 2.14,-8.88 1.43,-2.49 3.47,-4.41 6.12,-5.78 2.65,-1.37 5.79,-2.05 9.41,-2.05 1.69,0 3.33,0.12 4.92,0.34 1.6,0.23 3.07,0.53 4.42,0.9 1.35,0.37 2.47,0.8 3.36,1.29l0.09 7.87 -0.41 0c-0.58,-2.09 -1.43,-3.75 -2.53,-4.99 -1.1,-1.24 -2.39,-2.13 -3.84,-2.67 -1.46,-0.54 -3,-0.81 -4.63,-0.81 -2.52,0 -4.63,0.61 -6.35,1.82 -1.72,1.21 -3.01,2.94 -3.89,5.18 -0.87,2.24 -1.31,4.92 -1.31,8.05 0,2.95 0.41,5.51 1.22,7.71 0.81,2.19 2,3.88 3.57,5.06 1.56,1.18 3.47,1.79 5.71,1.82 1.14,0 2.23,-0.18 3.29,-0.53 1.06,-0.35 1.99,-0.87 2.78,-1.54 0.8,-0.67 1.37,-1.5 1.7,-2.48l0.05 -7.04c0,-1.38 -0.78,-2.07 -2.35,-2.07l-0.74 0 0 -0.46 12.93 0 0 0.46 -0.69 0c-1.6,0 -2.36,0.69 -2.3,2.07z"/>
  </g>
 </g>
</svg>
