<svg xmlns="http://www.w3.org/2000/svg" xmlns:xlink="http://www.w3.org/1999/xlink" zoomAndPan="magnify" preserveAspectRatio="xMidYMid meet" version="1.0" viewBox="118.03 331.57 573.94 146.86"><defs><clipPath id="ead73516bd"><path d="M 145 331.566406 L 163 331.566406 L 163 431 L 145 431 Z M 145 331.566406 " clip-rule="nonzero"/></clipPath><clipPath id="14a55dd7fe"><path d="M 171 331.566406 L 190 331.566406 L 190 431 L 171 431 Z M 171 331.566406 " clip-rule="nonzero"/></clipPath><clipPath id="595d77fe27"><path d="M 237 338 L 240 338 L 240 478.566406 L 237 478.566406 Z M 237 338 " clip-rule="nonzero"/></clipPath></defs><g clip-path="url(#ead73516bd)"><path fill="#d4af37" d="M 162.609375 331.566406 L 162.609375 430.152344 L 145 430.152344 L 145 349.175781 Z M 162.609375 331.566406 " fill-opacity="1" fill-rule="evenodd"/></g><g clip-path="url(#14a55dd7fe)"><path fill="#d4af37" d="M 171.972656 331.566406 L 171.972656 430.152344 L 189.578125 430.152344 L 189.578125 349.175781 Z M 171.972656 331.566406 " fill-opacity="1" fill-rule="evenodd"/></g><path fill="#d4af37" d="M 135.636719 358.613281 L 135.636719 430.152344 L 118.03125 430.152344 L 118.03125 376.21875 Z M 135.636719 358.613281 " fill-opacity="1" fill-rule="evenodd"/><path fill="#d4af37" d="M 198.945312 358.613281 L 198.945312 430.152344 L 216.550781 430.152344 L 216.550781 376.21875 Z M 198.945312 358.613281 " fill-opacity="1" fill-rule="evenodd"/><path fill="#ffffff" d="M 118.03125 443.148438 L 150.554688 443.148438 C 159.765625 443.148438 167.289062 450.6875 167.289062 459.886719 C 167.289062 450.675781 174.828125 443.148438 184.027344 443.148438 L 216.550781 443.148438 L 216.550781 436.058594 L 184.027344 436.058594 C 174.816406 436.058594 167.289062 443.597656 167.289062 452.792969 C 167.289062 443.585938 159.753906 436.058594 150.554688 436.058594 L 118.03125 436.058594 Z M 118.03125 443.148438 " fill-opacity="1" fill-rule="evenodd"/><path fill="#ffffff" d="M 167.289062 465.117188 C 167.289062 455.910156 159.753906 448.382812 150.554688 448.382812 L 118.03125 448.382812 L 118.03125 461.183594 L 150.554688 461.183594 C 156.089844 461.183594 161.007812 463.902344 164.0625 468.066406 L 170.53125 468.066406 C 173.582031 463.902344 178.503906 461.183594 184.035156 461.183594 L 216.5625 461.183594 L 216.5625 448.382812 L 184.035156 448.382812 C 174.828125 448.382812 167.300781 455.917969 167.300781 465.117188 Z M 167.289062 465.117188 " fill-opacity="1" fill-rule="evenodd"/><g clip-path="url(#595d77fe27)"><path fill="#ffffff" d="M 237.199219 338.460938 L 239.140625 338.460938 L 239.140625 478.425781 L 237.199219 478.425781 Z M 237.199219 338.460938 " fill-opacity="1" fill-rule="evenodd"/></g><path fill="#ffffff" d="M 273.984375 368.628906 L 273.984375 401.933594 L 266.820312 401.933594 L 266.820312 368.628906 Z M 285.683594 368.445312 L 285.683594 370.449219 L 255.109375 370.449219 L 255.109375 368.445312 Z M 285.683594 370.300781 L 285.683594 375.9375 L 285.207031 375.886719 L 285.207031 375.359375 C 285.207031 373.863281 284.769531 372.679688 283.886719 371.796875 C 283.015625 370.925781 281.820312 370.46875 280.328125 370.4375 L 280.328125 370.292969 L 285.671875 370.292969 Z M 285.683594 367.582031 L 285.683594 368.972656 L 279.859375 368.445312 C 280.554688 368.445312 281.300781 368.390625 282.082031 368.296875 C 282.859375 368.203125 283.585938 368.089844 284.25 367.964844 C 284.914062 367.839844 285.390625 367.707031 285.683594 367.582031 Z M 266.953125 398.445312 L 266.953125 401.933594 L 263.132812 401.933594 L 263.132812 401.457031 C 263.132812 401.457031 263.238281 401.457031 263.445312 401.457031 C 263.652344 401.457031 263.757812 401.457031 263.757812 401.457031 C 264.585938 401.457031 265.292969 401.167969 265.886719 400.574219 C 266.476562 399.984375 266.789062 399.277344 266.820312 398.445312 L 266.964844 398.445312 Z M 273.835938 398.445312 L 273.984375 398.445312 C 274.015625 399.277344 274.324219 399.984375 274.917969 400.574219 C 275.507812 401.167969 276.214844 401.457031 277.046875 401.457031 C 277.046875 401.457031 277.148438 401.457031 277.355469 401.457031 C 277.566406 401.457031 277.667969 401.457031 277.667969 401.457031 L 277.667969 401.933594 L 273.847656 401.933594 L 273.847656 398.445312 Z M 260.414062 370.300781 L 260.414062 370.449219 C 258.949219 370.476562 257.777344 370.933594 256.90625 371.808594 C 256.03125 372.679688 255.585938 373.875 255.585938 375.367188 L 255.585938 375.898438 L 255.109375 375.949219 L 255.109375 370.3125 L 260.414062 370.3125 Z M 255.109375 367.582031 C 255.429688 367.707031 255.910156 367.839844 256.5625 367.964844 C 257.214844 368.089844 257.945312 368.203125 258.730469 368.296875 C 259.53125 368.390625 260.257812 368.445312 260.933594 368.445312 L 255.109375 368.972656 Z M 321.800781 368.484375 L 321.800781 401.925781 L 314.636719 401.925781 L 314.636719 368.484375 Z M 299.160156 368.484375 L 299.160156 401.925781 L 291.996094 401.925781 L 291.996094 368.484375 Z M 315.0625 384.296875 L 315.0625 386.300781 L 298.679688 386.300781 L 298.679688 384.296875 Z M 292.128906 398.4375 L 292.128906 401.925781 L 288.308594 401.925781 L 288.308594 401.445312 C 288.308594 401.445312 288.414062 401.445312 288.621094 401.445312 C 288.828125 401.445312 288.933594 401.445312 288.933594 401.445312 C 289.761719 401.445312 290.46875 401.15625 291.0625 400.566406 C 291.652344 399.972656 291.964844 399.265625 291.996094 398.4375 L 292.140625 398.4375 Z M 292.128906 371.972656 L 291.984375 371.972656 C 291.953125 371.144531 291.640625 370.4375 291.050781 369.84375 C 290.457031 369.253906 289.753906 368.960938 288.921875 368.960938 C 288.921875 368.960938 288.820312 368.960938 288.609375 368.960938 C 288.402344 368.960938 288.300781 368.960938 288.300781 368.960938 L 288.300781 368.484375 L 292.121094 368.484375 L 292.121094 371.972656 Z M 299.011719 398.4375 L 299.160156 398.4375 C 299.191406 399.265625 299.5 399.972656 300.09375 400.566406 C 300.683594 401.15625 301.390625 401.445312 302.222656 401.445312 C 302.222656 401.445312 302.316406 401.445312 302.511719 401.445312 C 302.699219 401.445312 302.8125 401.445312 302.84375 401.445312 L 302.84375 401.925781 L 299.023438 401.925781 L 299.023438 398.4375 Z M 299.011719 371.972656 L 299.011719 368.484375 L 302.832031 368.484375 L 302.832031 368.960938 C 302.800781 368.960938 302.6875 368.960938 302.5 368.960938 C 302.316406 368.960938 302.210938 368.960938 302.210938 368.960938 C 301.378906 368.960938 300.675781 369.253906 300.082031 369.84375 C 299.492188 370.4375 299.179688 371.144531 299.148438 371.972656 L 299.003906 371.972656 Z M 314.78125 398.4375 L 314.78125 401.925781 L 310.960938 401.925781 L 310.960938 401.445312 C 310.992188 401.445312 311.109375 401.445312 311.292969 401.445312 C 311.480469 401.445312 311.585938 401.445312 311.585938 401.445312 C 312.417969 401.445312 313.132812 401.15625 313.734375 400.566406 C 314.335938 399.972656 314.636719 399.265625 314.636719 398.4375 Z M 314.78125 371.972656 L 314.636719 371.972656 C 314.636719 371.144531 314.335938 370.4375 313.734375 369.84375 C 313.132812 369.253906 312.417969 368.960938 311.585938 368.960938 C 311.585938 368.960938 311.492188 368.960938 311.292969 368.960938 C 311.109375 368.960938 310.992188 368.960938 310.960938 368.960938 L 310.960938 368.484375 L 314.78125 368.484375 Z M 321.667969 398.4375 L 321.8125 398.4375 C 321.84375 399.265625 322.152344 399.972656 322.746094 400.566406 C 323.335938 401.15625 324.042969 401.445312 324.875 401.445312 C 324.875 401.445312 324.976562 401.445312 325.1875 401.445312 C 325.394531 401.445312 325.496094 401.445312 325.496094 401.445312 L 325.496094 401.925781 L 321.675781 401.925781 L 321.675781 398.4375 Z M 321.667969 371.972656 L 321.667969 368.484375 L 325.488281 368.484375 L 325.488281 368.960938 C 325.488281 368.960938 325.382812 368.960938 325.175781 368.960938 C 324.96875 368.960938 324.863281 368.960938 324.863281 368.960938 C 324.035156 368.960938 323.328125 369.253906 322.734375 369.84375 C 322.144531 370.4375 321.832031 371.144531 321.800781 371.972656 L 321.65625 371.972656 Z M 340.34375 368.484375 L 340.34375 401.925781 L 333.179688 401.925781 L 333.179688 368.484375 Z M 352.957031 399.867188 L 354.097656 401.925781 L 340.199219 401.925781 L 340.199219 399.867188 Z M 351.191406 384.441406 L 351.191406 386.445312 L 340.207031 386.445312 L 340.207031 384.441406 Z M 353.539062 368.484375 L 353.539062 370.539062 L 340.207031 370.539062 L 340.207031 368.484375 Z M 356.457031 392.1875 L 354.253906 401.933594 L 344.890625 401.933594 L 346.613281 399.878906 C 348.203125 399.878906 349.601562 399.566406 350.816406 398.945312 C 352.03125 398.320312 353.058594 397.429688 353.921875 396.265625 C 354.785156 395.105469 355.46875 393.742188 355.976562 392.1875 Z M 351.203125 386.363281 L 351.203125 390.949219 L 350.722656 390.949219 L 350.722656 390.527344 C 350.722656 389.382812 350.339844 388.429688 349.582031 387.660156 C 348.8125 386.890625 347.847656 386.496094 346.664062 386.464844 L 346.664062 386.371094 L 351.203125 386.371094 Z M 351.203125 379.957031 L 351.203125 384.546875 L 346.664062 384.546875 L 346.664062 384.453125 C 347.839844 384.421875 348.8125 384.015625 349.582031 383.238281 C 350.351562 382.457031 350.722656 381.492188 350.722656 380.351562 L 350.722656 379.96875 L 351.203125 379.96875 Z M 353.546875 370.40625 L 353.546875 375.992188 L 353.070312 375.992188 L 353.070312 375.421875 C 353.070312 373.957031 352.636719 372.773438 351.753906 371.878906 C 350.878906 370.988281 349.6875 370.53125 348.191406 370.5 L 348.191406 370.40625 Z M 353.546875 367.632812 L 353.546875 369.015625 L 347.722656 368.484375 C 348.429688 368.484375 349.167969 368.433594 349.945312 368.339844 C 350.722656 368.246094 351.453125 368.132812 352.117188 368.007812 C 352.78125 367.882812 353.257812 367.746094 353.546875 367.625 Z M 333.335938 398.445312 L 333.335938 401.933594 L 329.515625 401.933594 L 329.515625 401.457031 C 329.515625 401.457031 329.617188 401.457031 329.828125 401.457031 C 330.035156 401.457031 330.136719 401.457031 330.136719 401.457031 C 330.96875 401.457031 331.675781 401.167969 332.265625 400.574219 C 332.859375 399.984375 333.167969 399.277344 333.199219 398.445312 L 333.34375 398.445312 Z M 333.335938 371.984375 L 333.191406 371.984375 C 333.160156 371.152344 332.847656 370.449219 332.253906 369.855469 C 331.664062 369.265625 330.957031 368.972656 330.128906 368.972656 C 330.128906 368.972656 330.023438 368.972656 329.816406 368.972656 C 329.609375 368.972656 329.503906 368.972656 329.503906 368.972656 L 329.503906 368.496094 L 333.324219 368.496094 L 333.324219 371.984375 Z M 382.875 367.832031 C 383.511719 367.832031 384.300781 367.863281 385.242188 367.925781 C 386.1875 367.988281 387.152344 368.082031 388.160156 368.183594 C 389.167969 368.296875 390.039062 368.414062 390.789062 368.515625 C 391.535156 368.628906 392.054688 368.746094 392.34375 368.878906 L 391.773438 375.328125 L 391.296875 375.328125 C 391.296875 373.664062 390.683594 372.335938 389.457031 371.339844 C 388.234375 370.332031 386.605469 369.835938 384.558594 369.835938 C 382.710938 369.835938 381.226562 370.28125 380.09375 371.175781 C 378.960938 372.066406 378.371094 373.148438 378.296875 374.421875 C 378.265625 375.378906 378.566406 376.210938 379.203125 376.90625 C 379.835938 377.609375 380.65625 378.253906 381.640625 378.867188 L 390.765625 384.792969 C 392.230469 385.625 393.339844 386.703125 394.089844 388.042969 C 394.835938 389.382812 395.167969 390.941406 395.066406 392.726562 C 394.910156 395.851562 393.714844 398.28125 391.484375 400.015625 C 389.25 401.75 386.230469 402.621094 382.410156 402.621094 C 381.007812 402.621094 379.648438 402.507812 378.328125 402.265625 C 377.011719 402.027344 375.839844 401.695312 374.820312 401.261719 C 373.804688 400.835938 372.992188 400.316406 372.378906 399.703125 C 372.121094 399.007812 372.015625 398.15625 372.046875 397.167969 C 372.078125 396.183594 372.234375 395.175781 372.503906 394.160156 C 372.773438 393.140625 373.117188 392.289062 373.53125 391.625 L 373.957031 391.625 C 373.835938 393.246094 374.125 394.75 374.839844 396.140625 C 375.558594 397.53125 376.605469 398.625 377.996094 399.441406 C 379.378906 400.253906 381.027344 400.648438 382.9375 400.617188 C 385.035156 400.585938 386.664062 400.054688 387.808594 399.019531 C 388.949219 397.980469 389.53125 396.734375 389.53125 395.269531 C 389.53125 394.285156 389.242188 393.390625 388.648438 392.589844 C 388.058594 391.792969 387.089844 391.035156 385.761719 390.296875 L 377.40625 384.753906 C 375.714844 383.796875 374.488281 382.574219 373.730469 381.078125 C 372.960938 379.582031 372.683594 377.953125 372.867188 376.210938 C 372.992188 374.546875 373.472656 373.09375 374.300781 371.839844 C 375.132812 370.582031 376.261719 369.597656 377.71875 368.898438 C 379.171875 368.195312 380.894531 367.851562 382.898438 367.851562 Z M 392.386719 368.308594 L 392.292969 369.316406 L 386.65625 369.316406 L 386.65625 368.308594 Z M 431.753906 387.992188 L 432.179688 396.214844 C 431.484375 397.386719 430.539062 398.457031 429.355469 399.414062 C 428.171875 400.367188 426.707031 401.136719 424.964844 401.726562 C 423.210938 402.320312 421.144531 402.609375 418.753906 402.609375 C 414.871094 402.578125 411.46875 401.871094 408.550781 400.480469 C 405.632812 399.101562 403.378906 397.117188 401.792969 394.53125 C 400.203125 391.957031 399.40625 388.832031 399.40625 385.167969 C 399.40625 381.597656 400.183594 378.523438 401.75 375.929688 C 403.308594 373.332031 405.550781 371.328125 408.46875 369.929688 C 411.386719 368.527344 414.863281 367.832031 418.910156 367.832031 C 421.453125 367.832031 423.75 368.089844 425.761719 368.597656 C 427.789062 369.109375 429.46875 369.730469 430.808594 370.46875 L 430.902344 378.636719 L 430.476562 378.636719 C 429.613281 375.480469 428.214844 373.230469 426.273438 371.878906 C 424.332031 370.53125 422.058594 369.84375 419.441406 369.84375 C 416.898438 369.84375 414.707031 370.46875 412.902344 371.714844 C 411.082031 372.960938 409.683594 374.703125 408.695312 376.96875 C 407.710938 379.230469 407.210938 381.941406 407.210938 385.085938 C 407.210938 388.242188 407.679688 390.960938 408.625 393.253906 C 409.566406 395.550781 410.898438 397.335938 412.640625 398.601562 C 414.375 399.878906 416.421875 400.542969 418.777344 400.605469 C 421.226562 400.605469 423.304688 400.210938 424.984375 399.414062 C 426.675781 398.613281 428.035156 397.292969 429.066406 395.445312 C 430.101562 393.597656 430.871094 391.117188 431.378906 387.992188 L 431.765625 387.992188 Z M 469.875 368.496094 L 469.875 401.933594 L 462.710938 401.933594 L 462.710938 368.496094 Z M 447.234375 368.496094 L 447.234375 401.933594 L 440.070312 401.933594 L 440.070312 368.496094 Z M 463.136719 384.308594 L 463.136719 386.308594 L 446.753906 386.308594 L 446.753906 384.308594 Z M 440.203125 398.445312 L 440.203125 401.933594 L 436.382812 401.933594 L 436.382812 401.457031 C 436.382812 401.457031 436.488281 401.457031 436.695312 401.457031 C 436.902344 401.457031 437.007812 401.457031 437.007812 401.457031 C 437.835938 401.457031 438.542969 401.167969 439.136719 400.574219 C 439.726562 399.984375 440.039062 399.277344 440.070312 398.445312 L 440.214844 398.445312 Z M 440.203125 371.984375 L 440.058594 371.984375 C 440.027344 371.152344 439.714844 370.449219 439.125 369.855469 C 438.53125 369.265625 437.828125 368.972656 436.996094 368.972656 C 436.996094 368.972656 436.894531 368.972656 436.683594 368.972656 C 436.476562 368.972656 436.375 368.972656 436.375 368.972656 L 436.375 368.496094 L 440.195312 368.496094 L 440.195312 371.984375 Z M 447.085938 398.445312 L 447.234375 398.445312 C 447.265625 399.277344 447.574219 399.984375 448.167969 400.574219 C 448.757812 401.167969 449.464844 401.457031 450.296875 401.457031 C 450.296875 401.457031 450.390625 401.457031 450.585938 401.457031 C 450.773438 401.457031 450.886719 401.457031 450.917969 401.457031 L 450.917969 401.933594 L 447.097656 401.933594 L 447.097656 398.445312 Z M 447.085938 371.984375 L 447.085938 368.496094 L 450.90625 368.496094 L 450.90625 368.972656 C 450.875 368.972656 450.761719 368.972656 450.574219 368.972656 C 450.390625 368.972656 450.285156 368.972656 450.285156 368.972656 C 449.453125 368.972656 448.75 369.265625 448.15625 369.855469 C 447.566406 370.445312 447.253906 371.152344 447.222656 371.984375 L 447.078125 371.984375 Z M 462.855469 398.445312 L 462.855469 401.933594 L 459.035156 401.933594 L 459.035156 401.457031 C 459.066406 401.457031 459.183594 401.457031 459.367188 401.457031 C 459.554688 401.457031 459.660156 401.457031 459.660156 401.457031 C 460.488281 401.457031 461.207031 401.167969 461.808594 400.574219 C 462.410156 399.984375 462.710938 399.277344 462.710938 398.445312 Z M 462.855469 371.984375 L 462.710938 371.984375 C 462.710938 371.152344 462.410156 370.449219 461.808594 369.855469 C 461.207031 369.265625 460.488281 368.972656 459.660156 368.972656 C 459.660156 368.972656 459.566406 368.972656 459.367188 368.972656 C 459.183594 368.972656 459.066406 368.972656 459.035156 368.972656 L 459.035156 368.496094 L 462.855469 368.496094 Z M 469.742188 398.445312 L 469.886719 398.445312 C 469.917969 399.277344 470.226562 399.984375 470.820312 400.574219 C 471.410156 401.167969 472.117188 401.457031 472.949219 401.457031 C 472.949219 401.457031 473.050781 401.457031 473.257812 401.457031 C 473.46875 401.457031 473.570312 401.457031 473.570312 401.457031 L 473.570312 401.933594 L 469.75 401.933594 L 469.75 398.445312 Z M 469.742188 371.984375 L 469.742188 368.496094 L 473.5625 368.496094 L 473.5625 368.972656 C 473.5625 368.972656 473.457031 368.972656 473.25 368.972656 C 473.042969 368.972656 472.9375 368.972656 472.9375 368.972656 C 472.105469 368.972656 471.402344 369.265625 470.808594 369.855469 C 470.21875 370.445312 469.90625 371.152344 469.875 371.984375 L 469.730469 371.984375 Z M 495.726562 367.832031 C 499.546875 367.832031 502.867188 368.535156 505.691406 369.960938 C 508.515625 371.382812 510.695312 373.375 512.234375 375.960938 C 513.78125 378.535156 514.546875 381.628906 514.546875 385.230469 C 514.546875 388.800781 513.78125 391.875 512.234375 394.46875 C 510.6875 397.066406 508.503906 399.070312 505.691406 400.492188 C 502.867188 401.914062 499.554688 402.621094 495.726562 402.621094 C 491.90625 402.621094 488.582031 401.914062 485.769531 400.492188 C 482.945312 399.070312 480.777344 397.078125 479.25 394.5 C 477.722656 391.917969 476.957031 388.832031 476.957031 385.230469 C 476.957031 381.660156 477.722656 378.585938 479.25 375.992188 C 480.777344 373.394531 482.957031 371.390625 485.769531 369.96875 C 488.59375 368.546875 491.90625 367.839844 495.726562 367.839844 Z M 495.726562 400.605469 C 497.988281 400.605469 499.941406 399.972656 501.582031 398.714844 C 503.222656 397.460938 504.476562 395.683594 505.359375 393.390625 C 506.230469 391.097656 506.679688 388.375 506.679688 385.21875 C 506.679688 382.0625 506.242188 379.34375 505.359375 377.050781 C 504.488281 374.753906 503.222656 372.980469 501.582031 371.722656 C 499.941406 370.46875 497.988281 369.835938 495.726562 369.835938 C 493.492188 369.835938 491.5625 370.46875 489.921875 371.722656 C 488.28125 372.980469 487.015625 374.753906 486.121094 377.050781 C 485.230469 379.34375 484.785156 382.0625 484.785156 385.21875 C 484.785156 388.375 485.230469 391.097656 486.121094 393.390625 C 487.015625 395.683594 488.28125 397.460938 489.921875 398.714844 C 491.5625 399.972656 493.492188 400.605469 495.726562 400.605469 Z M 538.25 367.832031 C 542.070312 367.832031 545.390625 368.535156 548.214844 369.960938 C 551.039062 371.382812 553.21875 373.375 554.757812 375.960938 C 556.304688 378.535156 557.070312 381.628906 557.070312 385.230469 C 557.070312 388.800781 556.304688 391.875 554.757812 394.46875 C 553.210938 397.066406 551.027344 399.070312 548.214844 400.492188 C 545.390625 401.914062 542.078125 402.621094 538.25 402.621094 C 534.429688 402.621094 531.105469 401.914062 528.292969 400.492188 C 525.46875 399.070312 523.300781 397.078125 521.773438 394.5 C 520.246094 391.917969 519.480469 388.832031 519.480469 385.230469 C 519.480469 381.660156 520.246094 378.585938 521.773438 375.992188 C 523.300781 373.394531 525.480469 371.390625 528.292969 369.96875 C 531.117188 368.546875 534.429688 367.839844 538.25 367.839844 Z M 538.25 400.605469 C 540.511719 400.605469 542.464844 399.972656 544.105469 398.714844 C 545.746094 397.460938 547 395.683594 547.882812 393.390625 C 548.753906 391.097656 549.203125 388.375 549.203125 385.21875 C 549.203125 382.0625 548.765625 379.34375 547.882812 377.050781 C 547.011719 374.753906 545.746094 372.980469 544.105469 371.722656 C 542.464844 370.46875 540.511719 369.835938 538.25 369.835938 C 536.015625 369.835938 534.085938 370.46875 532.445312 371.722656 C 530.804688 372.980469 529.539062 374.753906 528.644531 377.050781 C 527.753906 379.34375 527.308594 382.0625 527.308594 385.21875 C 527.308594 388.375 527.753906 391.097656 528.644531 393.390625 C 529.539062 395.683594 530.804688 397.460938 532.445312 398.714844 C 534.085938 399.972656 536.015625 400.605469 538.25 400.605469 Z M 571.023438 368.496094 L 571.023438 401.933594 L 563.859375 401.933594 L 563.859375 368.496094 Z M 583.636719 399.878906 L 584.78125 401.933594 L 570.878906 401.933594 L 570.878906 399.878906 Z M 587.125 392.1875 L 584.925781 401.933594 L 575.5625 401.933594 L 577.285156 399.878906 C 578.871094 399.878906 580.273438 399.566406 581.488281 398.945312 C 582.703125 398.320312 583.730469 397.429688 584.59375 396.265625 C 585.453125 395.105469 586.140625 393.742188 586.648438 392.1875 Z M 564.007812 398.445312 L 564.007812 401.933594 L 560.183594 401.933594 L 560.183594 401.457031 C 560.183594 401.457031 560.289062 401.457031 560.496094 401.457031 C 560.703125 401.457031 560.808594 401.457031 560.808594 401.457031 C 561.640625 401.457031 562.34375 401.167969 562.9375 400.574219 C 563.527344 399.984375 563.839844 399.277344 563.871094 398.445312 L 564.015625 398.445312 Z M 564.007812 371.984375 L 563.859375 371.984375 C 563.828125 371.152344 563.519531 370.449219 562.925781 369.855469 C 562.335938 369.265625 561.628906 368.972656 560.796875 368.972656 C 560.796875 368.972656 560.695312 368.972656 560.488281 368.972656 C 560.277344 368.972656 560.175781 368.972656 560.175781 368.972656 L 560.175781 368.496094 L 563.996094 368.496094 L 563.996094 371.984375 Z M 570.890625 371.984375 L 570.890625 368.496094 L 574.710938 368.496094 L 574.710938 368.972656 C 574.679688 368.972656 574.5625 368.972656 574.378906 368.972656 C 574.191406 368.972656 574.085938 368.972656 574.085938 368.972656 C 573.257812 368.972656 572.550781 369.265625 571.957031 369.855469 C 571.367188 370.445312 571.054688 371.152344 571.023438 371.984375 L 570.878906 371.984375 Z M 267.316406 418.628906 L 267.316406 452.066406 L 260.15625 452.066406 L 260.15625 418.628906 Z M 278.167969 434.585938 L 278.167969 436.589844 L 267.183594 436.589844 L 267.183594 434.585938 Z M 280.511719 418.628906 L 280.511719 420.683594 L 267.183594 420.683594 L 267.183594 418.628906 Z M 278.167969 436.496094 L 278.167969 441.085938 L 277.6875 441.085938 L 277.6875 440.660156 C 277.6875 439.515625 277.304688 438.5625 276.546875 437.792969 C 275.777344 437.023438 274.8125 436.628906 273.628906 436.597656 L 273.628906 436.507812 L 278.167969 436.507812 Z M 278.167969 430.089844 L 278.167969 434.679688 L 273.628906 434.679688 L 273.628906 434.585938 C 274.804688 434.554688 275.777344 434.148438 276.546875 433.371094 C 277.316406 432.59375 277.6875 431.625 277.6875 430.484375 L 277.6875 430.101562 L 278.167969 430.101562 Z M 280.511719 420.539062 L 280.511719 425.84375 L 280.035156 425.84375 L 280.035156 425.367188 C 280.035156 423.933594 279.609375 422.792969 278.769531 421.949219 C 277.929688 421.109375 276.785156 420.683594 275.355469 420.683594 L 275.355469 420.539062 Z M 280.511719 417.765625 L 280.511719 419.148438 L 274.6875 418.617188 C 275.394531 418.617188 276.132812 418.566406 276.910156 418.472656 C 277.6875 418.378906 278.417969 418.265625 279.082031 418.140625 C 279.746094 418.015625 280.222656 417.882812 280.511719 417.757812 Z M 260.300781 448.578125 L 260.300781 452.066406 L 256.480469 452.066406 L 256.480469 451.589844 C 256.480469 451.589844 256.582031 451.589844 256.792969 451.589844 C 257 451.589844 257.101562 451.589844 257.101562 451.589844 C 257.933594 451.589844 258.640625 451.300781 259.230469 450.707031 C 259.824219 450.117188 260.132812 449.410156 260.164062 448.578125 L 260.308594 448.578125 Z M 260.300781 422.117188 L 260.15625 422.117188 C 260.125 421.285156 259.8125 420.582031 259.21875 419.988281 C 258.628906 419.398438 257.921875 419.105469 257.09375 419.105469 C 257.09375 419.105469 256.988281 419.105469 256.78125 419.105469 C 256.574219 419.105469 256.46875 419.105469 256.46875 419.105469 L 256.46875 418.628906 L 260.289062 418.628906 L 260.289062 422.117188 Z M 267.183594 448.578125 L 267.328125 448.578125 C 267.359375 449.410156 267.671875 450.117188 268.261719 450.707031 C 268.855469 451.300781 269.558594 451.589844 270.390625 451.589844 C 270.390625 451.589844 270.484375 451.589844 270.683594 451.589844 C 270.867188 451.589844 270.984375 451.589844 271.015625 451.589844 L 271.015625 452.066406 L 267.195312 452.066406 L 267.195312 448.578125 Z M 303.683594 417.953125 C 307.503906 417.953125 310.828125 418.660156 313.652344 420.082031 C 316.476562 421.503906 318.65625 423.496094 320.191406 426.082031 C 321.738281 428.65625 322.507812 431.75 322.507812 435.355469 C 322.507812 438.925781 321.738281 441.996094 320.191406 444.59375 C 318.644531 447.1875 316.464844 449.191406 313.652344 450.613281 C 310.828125 452.035156 307.515625 452.742188 303.683594 452.742188 C 299.863281 452.742188 296.542969 452.035156 293.730469 450.613281 C 290.90625 449.191406 288.734375 447.199219 287.210938 444.625 C 285.683594 442.039062 284.914062 438.957031 284.914062 435.355469 C 284.914062 431.78125 285.683594 428.710938 287.210938 426.113281 C 288.734375 423.519531 290.914062 421.515625 293.730469 420.09375 C 296.554688 418.671875 299.863281 417.964844 303.683594 417.964844 Z M 303.683594 450.730469 C 305.949219 450.730469 307.898438 450.09375 309.539062 448.839844 C 311.179688 447.582031 312.4375 445.808594 313.320312 443.511719 C 314.191406 441.21875 314.636719 438.5 314.636719 435.34375 C 314.636719 432.1875 314.203125 429.46875 313.320312 427.171875 C 312.449219 424.878906 311.179688 423.101562 309.539062 421.847656 C 307.898438 420.589844 305.949219 419.957031 303.683594 419.957031 C 301.453125 419.957031 299.523438 420.589844 297.882812 421.847656 C 296.242188 423.101562 294.976562 424.878906 294.082031 427.171875 C 293.1875 429.46875 292.742188 432.1875 292.742188 435.34375 C 292.742188 438.5 293.1875 441.21875 294.082031 443.511719 C 294.976562 445.808594 296.242188 447.582031 297.882812 448.839844 C 299.523438 450.09375 301.453125 450.730469 303.683594 450.730469 Z M 335.984375 418.617188 L 342.148438 418.617188 C 343.582031 418.617188 344.984375 418.773438 346.355469 419.097656 C 347.722656 419.417969 348.9375 419.925781 350.007812 420.621094 C 351.078125 421.316406 351.929688 422.242188 352.5625 423.394531 C 353.195312 424.535156 353.515625 425.957031 353.515625 427.648438 C 353.515625 428.988281 353.238281 430.320312 352.675781 431.636719 C 352.117188 432.957031 351.265625 434.085938 350.121094 435.03125 C 348.980469 435.976562 347.496094 436.535156 345.679688 436.722656 C 346.695312 437.046875 347.632812 437.617188 348.472656 438.449219 C 349.3125 439.277344 350.007812 440.097656 350.546875 440.929688 C 350.578125 440.992188 350.765625 441.28125 351.097656 441.789062 C 351.429688 442.300781 351.847656 442.933594 352.34375 443.679688 C 352.84375 444.425781 353.351562 445.183594 353.902344 445.953125 C 354.441406 446.722656 354.941406 447.386719 355.386719 447.957031 C 356.09375 448.820312 356.726562 449.515625 357.296875 450.035156 C 357.867188 450.5625 358.480469 450.9375 359.113281 451.175781 C 359.746094 451.414062 360.484375 451.550781 361.3125 451.582031 L 361.3125 452.058594 L 356.632812 452.058594 C 354.910156 452.058594 353.351562 451.902344 351.949219 451.582031 C 350.546875 451.257812 349.300781 450.738281 348.222656 450.023438 C 347.144531 449.304688 346.199219 448.332031 345.398438 447.085938 C 345.140625 446.699219 344.871094 446.210938 344.558594 445.632812 C 344.257812 445.039062 343.945312 444.417969 343.625 443.742188 C 343.300781 443.078125 342.992188 442.421875 342.6875 441.8125 C 342.386719 441.1875 342.128906 440.628906 341.898438 440.117188 C 341.683594 439.609375 341.515625 439.214844 341.421875 438.925781 C 341.007812 437.90625 340.519531 437.140625 339.96875 436.628906 C 339.410156 436.121094 338.816406 435.820312 338.171875 435.726562 L 338.171875 435.25 C 338.265625 435.25 338.464844 435.25 338.746094 435.25 C 339.035156 435.25 339.335938 435.25 339.648438 435.25 C 340.507812 435.25 341.339844 435.074219 342.160156 434.71875 C 342.96875 434.367188 343.695312 433.796875 344.328125 432.996094 C 344.960938 432.199219 345.410156 431.097656 345.667969 429.695312 C 345.730469 429.40625 345.792969 429.074219 345.835938 428.6875 C 345.886719 428.304688 345.886719 427.878906 345.855469 427.402344 C 345.761719 425.105469 345.191406 423.425781 344.132812 422.355469 C 343.082031 421.285156 341.777344 420.734375 340.21875 420.703125 C 339.773438 420.675781 339.285156 420.664062 338.765625 420.683594 C 338.234375 420.695312 337.757812 420.703125 337.332031 420.703125 C 336.90625 420.703125 336.605469 420.703125 336.449219 420.703125 C 336.449219 420.675781 336.410156 420.488281 336.324219 420.15625 C 336.242188 419.824219 336.167969 419.480469 336.085938 419.128906 C 336.003906 418.773438 335.960938 418.597656 335.960938 418.597656 Z M 336.605469 418.617188 L 336.605469 452.058594 L 329.441406 452.058594 L 329.441406 418.617188 Z M 329.578125 448.570312 L 329.578125 452.058594 L 325.757812 452.058594 L 325.757812 451.582031 C 325.789062 451.582031 325.890625 451.582031 326.066406 451.582031 C 326.246094 451.582031 326.347656 451.582031 326.378906 451.582031 C 327.210938 451.582031 327.917969 451.289062 328.507812 450.699219 C 329.097656 450.105469 329.410156 449.398438 329.441406 448.570312 L 329.585938 448.570312 Z M 329.578125 422.105469 L 329.433594 422.105469 C 329.402344 421.277344 329.089844 420.570312 328.496094 419.976562 C 327.90625 419.386719 327.199219 419.097656 326.371094 419.097656 C 326.339844 419.097656 326.234375 419.097656 326.058594 419.097656 C 325.882812 419.097656 325.777344 419.097656 325.746094 419.097656 L 325.746094 418.617188 L 329.566406 418.617188 L 329.566406 422.105469 Z M 336.460938 448.570312 L 336.605469 448.570312 C 336.605469 449.398438 336.90625 450.105469 337.507812 450.699219 C 338.109375 451.289062 338.828125 451.582031 339.65625 451.582031 C 339.71875 451.582031 339.835938 451.582031 339.988281 451.582031 C 340.144531 451.582031 340.230469 451.582031 340.230469 451.582031 L 340.230469 452.058594 L 336.449219 452.058594 L 336.449219 448.570312 Z M 390.777344 418.753906 L 390.777344 452.058594 L 383.613281 452.058594 L 383.613281 418.753906 Z M 402.476562 418.566406 L 402.476562 420.570312 L 371.902344 420.570312 L 371.902344 418.566406 Z M 402.476562 420.425781 L 402.476562 426.0625 L 402 426.011719 L 402 425.480469 C 402 423.984375 401.5625 422.800781 400.679688 421.917969 C 399.808594 421.046875 398.617188 420.589844 397.121094 420.558594 L 397.121094 420.414062 L 402.46875 420.414062 Z M 402.476562 417.703125 L 402.476562 419.097656 L 396.652344 418.566406 C 397.347656 418.566406 398.097656 418.515625 398.875 418.421875 C 399.652344 418.328125 400.378906 418.214844 401.042969 418.089844 C 401.710938 417.964844 402.1875 417.828125 402.476562 417.703125 Z M 383.75 448.570312 L 383.75 452.058594 L 379.929688 452.058594 L 379.929688 451.582031 C 379.929688 451.582031 380.03125 451.582031 380.238281 451.582031 C 380.449219 451.582031 380.550781 451.582031 380.550781 451.582031 C 381.382812 451.582031 382.085938 451.289062 382.679688 450.699219 C 383.269531 450.105469 383.582031 449.398438 383.613281 448.570312 L 383.757812 448.570312 Z M 390.632812 448.570312 L 390.777344 448.570312 C 390.808594 449.398438 391.121094 450.105469 391.710938 450.699219 C 392.304688 451.289062 393.007812 451.582031 393.839844 451.582031 C 393.839844 451.582031 393.945312 451.582031 394.152344 451.582031 C 394.359375 451.582031 394.460938 451.582031 394.460938 451.582031 L 394.460938 452.058594 L 390.640625 452.058594 L 390.640625 448.570312 Z M 377.207031 420.425781 L 377.207031 420.570312 C 375.746094 420.601562 374.570312 421.058594 373.699219 421.929688 C 372.828125 422.800781 372.378906 423.996094 372.378906 425.492188 L 372.378906 426.019531 L 371.902344 426.074219 L 371.902344 420.433594 L 377.207031 420.433594 Z M 371.902344 417.703125 C 372.226562 417.828125 372.703125 417.964844 373.355469 418.089844 C 374.011719 418.214844 374.738281 418.328125 375.527344 418.421875 C 376.324219 418.515625 377.050781 418.566406 377.726562 418.566406 L 371.902344 419.097656 Z M 438.59375 418.609375 L 438.59375 452.046875 L 431.433594 452.046875 L 431.433594 418.609375 Z M 415.953125 418.609375 L 415.953125 452.046875 L 408.789062 452.046875 L 408.789062 418.609375 Z M 431.859375 434.417969 L 431.859375 436.421875 L 415.476562 436.421875 L 415.476562 434.417969 Z M 408.925781 448.558594 L 408.925781 452.046875 L 405.105469 452.046875 L 405.105469 451.570312 C 405.105469 451.570312 405.207031 451.570312 405.414062 451.570312 C 405.621094 451.570312 405.726562 451.570312 405.726562 451.570312 C 406.558594 451.570312 407.261719 451.277344 407.855469 450.6875 C 408.445312 450.09375 408.757812 449.390625 408.789062 448.558594 L 408.933594 448.558594 Z M 408.925781 422.097656 L 408.777344 422.097656 C 408.746094 421.265625 408.4375 420.558594 407.84375 419.96875 C 407.253906 419.375 406.546875 419.085938 405.714844 419.085938 C 405.714844 419.085938 405.613281 419.085938 405.40625 419.085938 C 405.199219 419.085938 405.09375 419.085938 405.09375 419.085938 L 405.09375 418.609375 L 408.914062 418.609375 L 408.914062 422.097656 Z M 415.808594 448.558594 L 415.953125 448.558594 C 415.984375 449.390625 416.296875 450.09375 416.886719 450.6875 C 417.480469 451.277344 418.183594 451.570312 419.015625 451.570312 C 419.015625 451.570312 419.109375 451.570312 419.304688 451.570312 C 419.492188 451.570312 419.605469 451.570312 419.636719 451.570312 L 419.636719 452.046875 L 415.816406 452.046875 L 415.816406 448.558594 Z M 415.808594 422.097656 L 415.808594 418.609375 L 419.628906 418.609375 L 419.628906 419.085938 C 419.597656 419.085938 419.484375 419.085938 419.296875 419.085938 C 419.109375 419.085938 419.003906 419.085938 419.003906 419.085938 C 418.175781 419.085938 417.46875 419.375 416.875 419.96875 C 416.285156 420.558594 415.972656 421.265625 415.941406 422.097656 L 415.796875 422.097656 Z M 431.578125 448.558594 L 431.578125 452.046875 L 427.757812 452.046875 L 427.757812 451.570312 C 427.789062 451.570312 427.902344 451.570312 428.089844 451.570312 C 428.277344 451.570312 428.378906 451.570312 428.378906 451.570312 C 429.210938 451.570312 429.925781 451.277344 430.527344 450.6875 C 431.128906 450.09375 431.433594 449.390625 431.433594 448.558594 Z M 431.578125 422.097656 L 431.433594 422.097656 C 431.433594 421.265625 431.128906 420.558594 430.527344 419.96875 C 429.925781 419.375 429.210938 419.085938 428.378906 419.085938 C 428.378906 419.085938 428.285156 419.085938 428.089844 419.085938 C 427.902344 419.085938 427.789062 419.085938 427.757812 419.085938 L 427.757812 418.609375 L 431.578125 418.609375 Z M 438.460938 448.558594 L 438.605469 448.558594 C 438.636719 449.390625 438.949219 450.09375 439.539062 450.6875 C 440.132812 451.277344 440.835938 451.570312 441.667969 451.570312 C 441.667969 451.570312 441.773438 451.570312 441.980469 451.570312 C 442.1875 451.570312 442.292969 451.570312 442.292969 451.570312 L 442.292969 452.046875 L 438.46875 452.046875 L 438.46875 448.558594 Z M 438.460938 422.097656 L 438.460938 418.609375 L 442.28125 418.609375 L 442.28125 419.085938 C 442.28125 419.085938 442.175781 419.085938 441.96875 419.085938 C 441.761719 419.085938 441.65625 419.085938 441.65625 419.085938 C 440.828125 419.085938 440.121094 419.375 439.53125 419.96875 C 438.9375 420.558594 438.625 421.265625 438.59375 422.097656 L 438.449219 422.097656 Z M 457.136719 418.609375 L 457.136719 452.046875 L 449.972656 452.046875 L 449.972656 418.609375 Z M 469.75 449.992188 L 470.894531 452.046875 L 456.992188 452.046875 L 456.992188 449.992188 Z M 467.984375 434.566406 L 467.984375 436.566406 L 457 436.566406 L 457 434.566406 Z M 470.332031 418.609375 L 470.332031 420.664062 L 457 420.664062 L 457 418.609375 Z M 473.25 442.308594 L 471.046875 452.058594 L 461.683594 452.058594 L 463.40625 450.003906 C 464.996094 450.003906 466.398438 449.691406 467.613281 449.066406 C 468.828125 448.445312 469.855469 447.550781 470.714844 446.390625 C 471.578125 445.226562 472.261719 443.867188 472.773438 442.308594 Z M 467.996094 436.484375 L 467.996094 441.074219 L 467.519531 441.074219 L 467.519531 440.648438 C 467.519531 439.507812 467.132812 438.550781 466.375 437.78125 C 465.609375 437.015625 464.644531 436.621094 463.460938 436.589844 L 463.460938 436.496094 L 467.996094 436.496094 Z M 467.996094 430.078125 L 467.996094 434.667969 L 463.460938 434.667969 L 463.460938 434.574219 C 464.632812 434.542969 465.609375 434.140625 466.375 433.359375 C 467.144531 432.582031 467.519531 431.617188 467.519531 430.472656 L 467.519531 430.089844 L 467.996094 430.089844 Z M 470.34375 420.527344 L 470.34375 426.113281 L 469.863281 426.113281 L 469.863281 425.542969 C 469.863281 424.078125 469.429688 422.894531 468.546875 422.003906 C 467.675781 421.109375 466.480469 420.652344 464.984375 420.621094 L 464.984375 420.527344 Z M 470.34375 417.757812 L 470.34375 419.136719 L 464.519531 418.609375 C 465.222656 418.609375 465.960938 418.554688 466.738281 418.460938 C 467.519531 418.371094 468.246094 418.253906 468.910156 418.128906 C 469.574219 418.003906 470.050781 417.871094 470.34375 417.746094 Z M 450.128906 448.570312 L 450.128906 452.058594 L 446.308594 452.058594 L 446.308594 451.582031 C 446.308594 451.582031 446.414062 451.582031 446.621094 451.582031 C 446.828125 451.582031 446.933594 451.582031 446.933594 451.582031 C 447.761719 451.582031 448.46875 451.289062 449.058594 450.699219 C 449.652344 450.105469 449.964844 449.398438 449.996094 448.570312 L 450.140625 448.570312 Z M 450.128906 422.105469 L 449.984375 422.105469 C 449.953125 421.277344 449.640625 420.570312 449.050781 419.976562 C 448.457031 419.386719 447.75 419.097656 446.921875 419.097656 C 446.921875 419.097656 446.816406 419.097656 446.609375 419.097656 C 446.402344 419.097656 446.296875 419.097656 446.296875 419.097656 L 446.296875 418.617188 L 450.117188 418.617188 L 450.117188 422.105469 Z M 505.785156 418.617188 C 509.542969 418.617188 512.792969 419.292969 515.535156 420.652344 C 518.273438 422.003906 520.382812 423.933594 521.867188 426.4375 C 523.351562 428.9375 524.089844 431.90625 524.089844 435.34375 C 524.089844 438.78125 523.351562 441.75 521.867188 444.25 C 520.382812 446.753906 518.273438 448.671875 515.535156 450.035156 C 512.792969 451.382812 509.542969 452.066406 505.785156 452.066406 L 494.417969 452.066406 L 494.367188 450.0625 C 495.289062 450.0625 496.253906 450.0625 497.25 450.0625 C 498.257812 450.0625 499.222656 450.0625 500.167969 450.0625 C 501.113281 450.0625 501.964844 450.0625 502.722656 450.0625 C 503.492188 450.0625 504.09375 450.0625 504.539062 450.0625 C 504.984375 450.0625 505.203125 450.0625 505.203125 450.0625 C 507.5 450.0625 509.472656 449.460938 511.132812 448.269531 C 512.792969 447.074219 514.058594 445.382812 514.953125 443.179688 C 515.84375 440.980469 516.292969 438.375 516.292969 435.34375 C 516.292969 432.320312 515.84375 429.707031 514.953125 427.503906 C 514.058594 425.304688 512.78125 423.613281 511.132812 422.417969 C 509.472656 421.222656 507.5 420.621094 505.203125 420.621094 C 505.203125 420.621094 504.976562 420.621094 504.507812 420.621094 C 504.050781 420.621094 503.417969 420.621094 502.617188 420.621094 C 501.820312 420.621094 500.925781 420.621094 499.941406 420.621094 C 498.953125 420.621094 497.9375 420.621094 496.886719 420.621094 C 495.839844 420.621094 494.832031 420.621094 493.878906 420.621094 L 493.878906 418.617188 Z M 499.285156 418.617188 L 499.285156 452.058594 L 492.125 452.058594 L 492.125 418.617188 Z M 492.257812 448.570312 L 492.257812 452.058594 L 488.4375 452.058594 L 488.4375 451.582031 C 488.4375 451.582031 488.542969 451.582031 488.75 451.582031 C 488.957031 451.582031 489.0625 451.582031 489.0625 451.582031 C 489.890625 451.582031 490.597656 451.289062 491.1875 450.699219 C 491.78125 450.105469 492.09375 449.398438 492.125 448.570312 L 492.269531 448.570312 Z M 492.257812 422.105469 L 492.113281 422.105469 C 492.113281 421.277344 491.8125 420.570312 491.210938 419.976562 C 490.609375 419.386719 489.890625 419.097656 489.0625 419.097656 C 489.0625 419.097656 488.96875 419.097656 488.769531 419.097656 C 488.582031 419.097656 488.480469 419.097656 488.480469 419.097656 L 488.425781 418.617188 L 492.246094 418.617188 L 492.246094 422.105469 Z M 541.375 417.664062 L 556.945312 451.777344 L 548.390625 451.777344 L 538.457031 426.882812 Z M 531.105469 448.570312 C 530.847656 449.203125 530.804688 449.753906 530.960938 450.1875 C 531.117188 450.636719 531.386719 450.976562 531.769531 451.21875 C 532.15625 451.457031 532.539062 451.582031 532.914062 451.582031 L 533.339844 451.582031 L 533.339844 452.058594 L 523.113281 452.058594 L 523.113281 451.582031 C 523.113281 451.582031 523.183594 451.582031 523.332031 451.582031 C 523.476562 451.582031 523.546875 451.582031 523.546875 451.582031 C 524.285156 451.582031 525.03125 451.351562 525.820312 450.882812 C 526.601562 450.417969 527.246094 449.648438 527.753906 448.570312 Z M 541.375 417.664062 L 541.5625 423.488281 L 529.714844 451.914062 L 526.226562 451.914062 L 538.601562 423.914062 C 538.695312 423.726562 538.863281 423.363281 539.101562 422.832031 C 539.339844 422.304688 539.597656 421.710938 539.867188 421.039062 C 540.136719 420.371094 540.386719 419.71875 540.605469 419.105469 C 540.835938 418.484375 540.9375 417.996094 540.9375 417.652344 L 541.363281 417.652344 Z M 546.386719 440.691406 L 546.386719 442.695312 L 532.34375 442.695312 L 532.34375 440.691406 Z M 547.105469 448.570312 L 555.460938 448.570312 C 556 449.648438 556.65625 450.429688 557.425781 450.882812 C 558.191406 451.339844 558.941406 451.582031 559.667969 451.582031 C 559.667969 451.582031 559.730469 451.582031 559.851562 451.582031 C 559.976562 451.582031 560.039062 451.582031 560.039062 451.582031 L 560.039062 452.058594 L 544.851562 452.058594 L 544.851562 451.582031 L 545.277344 451.582031 C 545.910156 451.582031 546.472656 451.320312 546.949219 450.792969 C 547.425781 450.261719 547.476562 449.523438 547.09375 448.570312 Z M 547.105469 448.570312 " fill-opacity="1" fill-rule="nonzero"/><path fill="#ffffff" d="M 571.054688 418.617188 L 577.222656 418.617188 C 578.65625 418.617188 580.054688 418.773438 581.425781 419.097656 C 582.796875 419.417969 584.011719 419.925781 585.082031 420.621094 C 586.148438 421.316406 587 422.242188 587.632812 423.394531 C 588.269531 424.535156 588.589844 425.957031 588.589844 427.648438 C 588.589844 428.988281 588.308594 430.320312 587.75 431.636719 C 587.1875 432.957031 586.335938 434.085938 585.195312 435.03125 C 584.054688 435.976562 582.566406 436.535156 580.75 436.722656 C 581.769531 437.046875 582.703125 437.617188 583.542969 438.449219 C 584.386719 439.277344 585.082031 440.097656 585.621094 440.929688 C 585.652344 440.992188 585.839844 441.28125 586.171875 441.789062 C 586.503906 442.300781 586.917969 442.933594 587.417969 443.679688 C 587.914062 444.425781 588.421875 445.183594 588.972656 445.953125 C 589.515625 446.722656 590.011719 447.386719 590.457031 447.957031 C 591.164062 448.820312 591.796875 449.515625 592.367188 450.035156 C 592.941406 450.5625 593.550781 450.9375 594.183594 451.175781 C 594.820312 451.414062 595.554688 451.550781 596.386719 451.582031 L 596.386719 452.058594 L 591.703125 452.058594 C 589.980469 452.058594 588.421875 451.902344 587.023438 451.582031 C 585.621094 451.257812 584.375 450.738281 583.296875 450.023438 C 582.214844 449.304688 581.269531 448.332031 580.472656 447.085938 C 580.210938 446.699219 579.941406 446.210938 579.628906 445.632812 C 579.328125 445.039062 579.019531 444.417969 578.695312 443.742188 C 578.375 443.078125 578.0625 442.421875 577.761719 441.8125 C 577.460938 441.1875 577.199219 440.628906 576.972656 440.117188 C 576.753906 439.609375 576.589844 439.214844 576.496094 438.925781 C 576.078125 437.90625 575.59375 437.140625 575.042969 436.628906 C 574.480469 436.121094 573.890625 435.820312 573.246094 435.726562 L 573.246094 435.25 C 573.339844 435.25 573.535156 435.25 573.816406 435.25 C 574.105469 435.25 574.410156 435.25 574.71875 435.25 C 575.582031 435.25 576.410156 435.074219 577.230469 434.71875 C 578.042969 434.367188 578.769531 433.796875 579.402344 432.996094 C 580.035156 432.199219 580.480469 431.097656 580.742188 429.695312 C 580.804688 429.40625 580.867188 429.074219 580.90625 428.6875 C 580.960938 428.304688 580.960938 427.878906 580.929688 427.402344 C 580.835938 425.105469 580.261719 423.425781 579.203125 422.355469 C 578.15625 421.285156 576.847656 420.734375 575.289062 420.703125 C 574.84375 420.675781 574.355469 420.664062 573.835938 420.683594 C 573.308594 420.695312 572.832031 420.703125 572.40625 420.703125 C 571.980469 420.703125 571.679688 420.703125 571.523438 420.703125 C 571.523438 420.675781 571.480469 420.488281 571.398438 420.15625 C 571.316406 419.824219 571.242188 419.480469 571.160156 419.128906 C 571.074219 418.773438 571.035156 418.597656 571.035156 418.597656 Z M 571.679688 418.617188 L 571.679688 452.058594 L 564.515625 452.058594 L 564.515625 418.617188 Z M 564.648438 448.570312 L 564.648438 452.058594 L 560.828125 452.058594 L 560.828125 451.582031 C 560.859375 451.582031 560.964844 451.582031 561.140625 451.582031 C 561.316406 451.582031 561.421875 451.582031 561.453125 451.582031 C 562.28125 451.582031 562.988281 451.289062 563.582031 450.699219 C 564.171875 450.105469 564.484375 449.398438 564.515625 448.570312 L 564.660156 448.570312 Z M 564.648438 422.105469 L 564.503906 422.105469 C 564.472656 421.277344 564.160156 420.570312 563.570312 419.976562 C 562.976562 419.386719 562.273438 419.097656 561.441406 419.097656 C 561.410156 419.097656 561.308594 419.097656 561.128906 419.097656 C 560.953125 419.097656 560.851562 419.097656 560.820312 419.097656 L 560.820312 418.617188 L 564.640625 418.617188 L 564.640625 422.105469 Z M 571.53125 448.570312 L 571.679688 448.570312 C 571.679688 449.398438 571.980469 450.105469 572.582031 450.699219 C 573.183594 451.289062 573.898438 451.582031 574.730469 451.582031 C 574.792969 451.582031 574.90625 451.582031 575.0625 451.582031 C 575.21875 451.582031 575.300781 451.582031 575.300781 451.582031 L 575.300781 452.058594 L 571.523438 452.058594 L 571.523438 448.570312 Z M 606.644531 418.617188 L 606.644531 452.058594 L 599.480469 452.058594 L 599.480469 418.617188 Z M 599.613281 448.570312 L 599.613281 452.058594 L 595.792969 452.058594 L 595.792969 451.582031 C 595.792969 451.582031 595.898438 451.582031 596.105469 451.582031 C 596.3125 451.582031 596.417969 451.582031 596.417969 451.582031 C 597.25 451.582031 597.953125 451.289062 598.546875 450.699219 C 599.136719 450.105469 599.449219 449.398438 599.480469 448.570312 L 599.625 448.570312 Z M 599.613281 422.105469 L 599.46875 422.105469 C 599.4375 421.277344 599.128906 420.570312 598.535156 419.976562 C 597.945312 419.386719 597.238281 419.097656 596.40625 419.097656 C 596.40625 419.097656 596.304688 419.097656 596.097656 419.097656 C 595.886719 419.097656 595.785156 419.097656 595.785156 419.097656 L 595.785156 418.617188 L 599.605469 418.617188 L 599.605469 422.105469 Z M 606.5 448.570312 L 606.644531 448.570312 C 606.675781 449.398438 606.984375 450.105469 607.578125 450.699219 C 608.167969 451.289062 608.875 451.582031 609.707031 451.582031 C 609.707031 451.582031 609.800781 451.582031 609.996094 451.582031 C 610.183594 451.582031 610.296875 451.582031 610.328125 451.582031 L 610.328125 452.058594 L 606.507812 452.058594 L 606.507812 448.570312 Z M 606.5 422.105469 L 606.5 418.617188 L 610.320312 418.617188 L 610.320312 419.097656 C 610.289062 419.097656 610.171875 419.097656 609.988281 419.097656 C 609.800781 419.097656 609.695312 419.097656 609.695312 419.097656 C 608.863281 419.097656 608.160156 419.386719 607.566406 419.976562 C 606.976562 420.570312 606.664062 421.277344 606.632812 422.105469 L 606.488281 422.105469 Z M 617.441406 417.902344 L 647.921875 446.949219 L 648.492188 452.734375 L 618.011719 423.738281 L 617.441406 417.914062 Z M 617.679688 448.671875 L 617.679688 452.066406 L 613.714844 452.066406 L 613.714844 451.589844 C 613.714844 451.589844 613.859375 451.589844 614.140625 451.589844 C 614.429688 451.589844 614.585938 451.589844 614.617188 451.589844 C 615.417969 451.589844 616.101562 451.300781 616.671875 450.730469 C 617.242188 450.15625 617.535156 449.472656 617.535156 448.671875 Z M 624.363281 448.671875 C 624.363281 449.472656 624.65625 450.15625 625.226562 450.730469 C 625.796875 451.300781 626.484375 451.589844 627.28125 451.589844 C 627.3125 451.589844 627.46875 451.589844 627.761719 451.589844 C 628.050781 451.589844 628.1875 451.589844 628.1875 451.589844 L 628.1875 452.066406 L 624.21875 452.066406 L 624.21875 448.671875 Z M 617.441406 417.902344 L 624.324219 425.210938 L 624.375 452.058594 L 617.542969 452.058594 L 617.542969 423.871094 C 617.542969 422.085938 617.449219 420.644531 617.253906 419.550781 C 617.066406 418.453125 616.964844 417.902344 616.964844 417.902344 Z M 648.347656 418.617188 L 648.347656 446.617188 C 648.347656 447.789062 648.398438 448.851562 648.492188 449.792969 C 648.585938 450.738281 648.679688 451.457031 648.78125 451.964844 C 648.875 452.472656 648.929688 452.734375 648.929688 452.734375 L 648.503906 452.734375 L 641.578125 445 L 641.578125 418.628906 L 648.355469 418.628906 Z M 652.167969 418.617188 L 652.167969 419.097656 C 652.167969 419.097656 652.023438 419.097656 651.742188 419.097656 C 651.449219 419.097656 651.316406 419.097656 651.316406 419.097656 C 650.515625 419.097656 649.832031 419.375 649.261719 419.925781 C 648.691406 420.488281 648.386719 421.171875 648.355469 422.003906 L 648.210938 422.003906 L 648.210938 418.609375 L 652.175781 418.609375 Z M 637.695312 418.617188 L 641.660156 418.617188 L 641.660156 422.011719 L 641.566406 422.011719 C 641.535156 421.183594 641.246094 420.488281 640.683594 419.9375 C 640.125 419.375 639.4375 419.105469 638.609375 419.105469 C 638.609375 419.105469 638.464844 419.105469 638.183594 419.105469 C 637.890625 419.105469 637.738281 419.105469 637.707031 419.105469 L 637.707031 418.628906 Z M 688.867188 438.6875 L 688.867188 446.566406 C 688.097656 447.519531 686.964844 448.476562 685.449219 449.429688 C 683.933594 450.386719 682.117188 451.175781 680 451.796875 C 677.882812 452.421875 675.546875 452.734375 673.003906 452.734375 C 669.371094 452.734375 666.203125 452.027344 663.492188 450.605469 C 660.785156 449.183594 658.6875 447.167969 657.191406 444.5625 C 655.695312 441.945312 654.949219 438.863281 654.949219 435.292969 C 654.949219 431.71875 655.6875 428.648438 657.171875 426.074219 C 658.65625 423.488281 660.773438 421.492188 663.523438 420.070312 C 666.277344 418.648438 669.535156 417.945312 673.292969 417.945312 C 675.046875 417.945312 676.75 418.066406 678.402344 418.296875 C 680.0625 418.535156 681.589844 418.847656 682.992188 419.230469 C 684.390625 419.613281 685.554688 420.0625 686.480469 420.570312 L 686.570312 428.742188 L 686.148438 428.742188 C 685.542969 426.570312 684.660156 424.847656 683.519531 423.558594 C 682.378906 422.273438 681.039062 421.347656 679.535156 420.789062 C 678.019531 420.226562 676.417969 419.945312 674.726562 419.945312 C 672.109375 419.945312 669.921875 420.582031 668.132812 421.835938 C 666.347656 423.09375 665.007812 424.890625 664.097656 427.214844 C 663.191406 429.539062 662.734375 432.320312 662.734375 435.570312 C 662.734375 438.632812 663.160156 441.292969 664.003906 443.574219 C 664.84375 445.847656 666.078125 447.605469 667.707031 448.828125 C 669.328125 450.054688 671.3125 450.6875 673.636719 450.71875 C 674.820312 450.71875 675.953125 450.53125 677.050781 450.167969 C 678.152344 449.804688 679.117188 449.265625 679.9375 448.570312 C 680.769531 447.875 681.359375 447.011719 681.703125 445.996094 L 681.753906 438.6875 C 681.753906 437.253906 680.945312 436.539062 679.316406 436.539062 L 678.546875 436.539062 L 678.546875 436.058594 L 691.96875 436.058594 L 691.96875 436.539062 L 691.253906 436.539062 C 689.59375 436.539062 688.804688 437.253906 688.867188 438.6875 Z M 688.867188 438.6875 " fill-opacity="1" fill-rule="nonzero"/></svg>